<svg width="17" height="18" viewBox="0 0 17 18" fill="none" xmlns="http://www.w3.org/2000/svg">
<path d="M1.59375 2.25C0.713867 2.25 0 3.00586 0 3.9375C0 4.46836 0.235742 4.96758 0.6375 5.2875L7.8625 11.025C8.24102 11.3238 8.75898 11.3238 9.1375 11.025L16.3625 5.2875C16.7643 4.96758 17 4.46836 17 3.9375C17 3.00586 16.2861 2.25 15.4062 2.25H1.59375ZM0 6.1875V13.5C0 14.741 0.95293 15.75 2.125 15.75H14.875C16.0471 15.75 17 14.741 17 13.5V6.1875L9.775 11.925C9.01797 12.5262 7.98203 12.5262 7.225 11.925L0 6.1875Z" fill="black"/>
</svg>
