<svg width="581" height="562" viewBox="0 0 581 562" fill="none" xmlns="http://www.w3.org/2000/svg">
<path d="M581 429.818H0V430.099H581V429.818Z" fill="#EBEBEB"/>
<path d="M191.254 447.15H152.769V447.431H191.254V447.15Z" fill="#EBEBEB"/>
<path d="M300.772 444.104H290.674V444.385H300.772V444.104Z" fill="#EBEBEB"/>
<path d="M83.2578 439.36H60.959V439.641H83.2578V439.36Z" fill="#EBEBEB"/>
<path d="M483.136 437.472H452.831V437.753H483.136V437.472Z" fill="#EBEBEB"/>
<path d="M442.478 437.472H415.24V437.753H442.478V437.472Z" fill="#EBEBEB"/>
<path d="M522.796 450.96H413.939V451.241H522.796V450.96Z" fill="#EBEBEB"/>
<path d="M275.394 379.687H51.0238C49.2661 379.684 47.5814 379.007 46.3396 377.803C45.0978 376.6 44.4004 374.969 44.4004 373.269V68.1818C44.4157 66.4913 45.1199 64.875 46.36 63.6838C47.6002 62.4926 49.2761 61.8228 51.0238 61.8199H275.394C277.154 61.8199 278.842 62.4961 280.086 63.6997C281.33 64.9034 282.029 66.5358 282.029 68.238V373.269C282.029 374.971 281.33 376.604 280.086 377.807C278.842 379.011 277.154 379.687 275.394 379.687ZM51.0238 62.0447C49.3431 62.0477 47.7324 62.6956 46.545 63.8462C45.3577 64.9968 44.6909 66.5561 44.6909 68.1818V373.269C44.6909 374.895 45.3577 376.454 46.545 377.605C47.7324 378.755 49.3431 379.403 51.0238 379.406H275.394C277.076 379.403 278.688 378.756 279.877 377.605C281.066 376.455 281.736 374.896 281.739 373.269V68.1818C281.736 66.5551 281.066 64.9958 279.877 63.8455C278.688 62.6953 277.076 62.0477 275.394 62.0447H51.0238Z" fill="#EBEBEB"/>
<path d="M526.746 379.687H302.364C300.605 379.684 298.919 379.007 297.675 377.804C296.432 376.601 295.732 374.97 295.729 373.269V68.1818C295.747 66.4903 296.454 64.8739 297.696 63.6831C298.938 62.4922 300.615 61.8228 302.364 61.8199H526.746C528.491 61.8258 530.164 62.4969 531.402 63.6877C532.64 64.8786 533.342 66.4933 533.357 68.1818V373.269C533.358 374.967 532.662 376.596 531.422 377.799C530.183 379.002 528.501 379.681 526.746 379.687ZM302.364 62.0447C300.682 62.0477 299.07 62.6953 297.881 63.8455C296.692 64.9958 296.022 66.5551 296.019 68.1818V373.269C296.022 374.896 296.692 376.455 297.881 377.605C299.07 378.756 300.682 379.403 302.364 379.406H526.746C528.427 379.403 530.039 378.756 531.229 377.605C532.418 376.455 533.087 374.896 533.09 373.269V68.1818C533.087 66.5551 532.418 64.9958 531.229 63.8455C530.039 62.6953 528.427 62.0477 526.746 62.0447H302.364Z" fill="#EBEBEB"/>
<path d="M370.213 426.468H397.578V310.651H370.213V426.468Z" fill="#F0F0F0"/>
<path d="M271.85 429.818H392.338V426.468H271.85V429.818Z" fill="#F0F0F0"/>
<path d="M370.213 310.651H266.586V426.468H370.213V310.651Z" fill="#F5F5F5"/>
<path d="M359.453 317.148H277.346V365.974H359.453V317.148Z" fill="#F0F0F0"/>
<path d="M359.453 371.145H277.346V419.971H359.453V371.145Z" fill="#F0F0F0"/>
<path d="M339.687 325.657H297.123C295.792 325.658 294.474 325.405 293.245 324.912C292.015 324.419 290.898 323.696 289.959 322.784C289.019 321.872 288.276 320.789 287.77 319.598C287.265 318.407 287.008 317.131 287.014 315.844H349.762C349.768 317.129 349.512 318.402 349.009 319.591C348.505 320.779 347.765 321.86 346.829 322.772C345.893 323.683 344.781 324.407 343.555 324.902C342.33 325.397 341.015 325.654 339.687 325.657Z" fill="#F5F5F5"/>
<path d="M339.687 379.653H297.123C294.445 379.653 291.877 378.624 289.983 376.793C288.089 374.961 287.025 372.476 287.025 369.886H349.773C349.773 372.474 348.711 374.957 346.82 376.789C344.929 378.62 342.363 379.65 339.687 379.653Z" fill="#F5F5F5"/>
<path d="M481.975 426.468H509.34V310.651H481.975V426.468Z" fill="#F0F0F0"/>
<path d="M383.599 429.818H504.087V426.468H383.599V429.818Z" fill="#F0F0F0"/>
<path d="M481.975 310.651H378.348V426.468H481.975V310.651Z" fill="#F5F5F5"/>
<path d="M471.214 317.148H389.107V365.974H471.214V317.148Z" fill="#F0F0F0"/>
<path d="M471.214 371.145H389.107V419.971H471.214V371.145Z" fill="#F0F0F0"/>
<path d="M451.437 325.656H408.873C406.195 325.656 403.627 324.627 401.733 322.796C399.839 320.964 398.775 318.479 398.775 315.889H461.523C461.523 318.477 460.461 320.96 458.57 322.792C456.679 324.623 454.113 325.654 451.437 325.656Z" fill="#F5F5F5"/>
<path d="M451.437 379.653H408.873C406.195 379.653 403.627 378.624 401.733 376.793C399.839 374.961 398.775 372.476 398.775 369.886H461.523C461.523 372.474 460.461 374.957 458.57 376.789C456.679 378.62 454.113 379.65 451.437 379.653Z" fill="#F5F5F5"/>
<path d="M129.47 155.045H176.345V102.632H129.47V155.045Z" fill="#E6E6E6"/>
<path d="M124.125 155.045H175.09V102.632H124.125V155.045Z" fill="#F5F5F5"/>
<path d="M170.814 150.919V106.769H128.39V150.919H170.814Z" fill="white"/>
<path d="M160.542 140.219V138.612C160.539 133.005 158.235 127.629 154.137 123.665C150.038 119.701 144.481 117.472 138.685 117.469V119.077C138.685 124.684 140.987 130.062 145.086 134.027C149.185 137.991 154.745 140.219 160.542 140.219Z" fill="#F5F5F5"/>
<path d="M333.076 253.968L509.352 253.968V94.4722L333.076 94.4722V253.968Z" fill="#E6E6E6"/>
<path d="M327.615 253.968L506.795 253.968V94.4722L327.615 94.4722V253.968Z" fill="#F0F0F0"/>
<path d="M333.076 259.655H509.352V253.968L333.076 253.968V259.655Z" fill="#E6E6E6"/>
<path d="M318.504 259.655H497.685V253.968L318.504 253.968V259.655Z" fill="#F0F0F0"/>
<path d="M499.137 245.403V103.037L335.248 103.037V245.403H499.137Z" fill="#FAFAFA"/>
<path d="M452.669 245.414L425.374 103.037H380.404L407.7 245.414H452.669Z" fill="white"/>
<path d="M495.605 197.105C495.76 197.093 495.904 197.023 496.007 196.909C496.109 196.796 496.161 196.648 496.151 196.498V108.612C496.151 108.472 496.093 108.338 495.991 108.238C495.889 108.139 495.75 108.084 495.605 108.084C495.46 108.084 495.321 108.139 495.219 108.238C495.116 108.338 495.059 108.472 495.059 108.612V196.498C495.049 196.648 495.101 196.796 495.203 196.909C495.305 197.023 495.45 197.093 495.605 197.105Z" fill="#F0F0F0"/>
<path d="M398.031 245.414L370.747 103.037H353.213L380.497 245.414H398.031Z" fill="white"/>
<path d="M336.225 245.403V103.037H335.249V245.403H336.225Z" fill="#E6E6E6"/>
<path opacity="0.4" d="M325.802 113.996H502.066L502.774 106.375H326.499L325.802 113.996Z" fill="#E6E6E6"/>
<path opacity="0.4" d="M325.802 122.774H502.066L502.774 115.142H326.499L325.802 122.774Z" fill="#E6E6E6"/>
<path opacity="0.4" d="M325.802 131.542H502.066L502.774 123.921H326.499L325.802 131.542Z" fill="#E6E6E6"/>
<path opacity="0.4" d="M325.802 140.32H502.066L502.774 132.688H326.499L325.802 140.32Z" fill="#E6E6E6"/>
<path opacity="0.4" d="M325.802 149.087H502.066L502.774 141.467H326.499L325.802 149.087Z" fill="#E6E6E6"/>
<path opacity="0.4" d="M325.802 157.866H502.066L502.774 150.234H326.499L325.802 157.866Z" fill="#E6E6E6"/>
<path opacity="0.4" d="M325.802 166.633H502.066L502.774 159.012H326.499L325.802 166.633Z" fill="#E6E6E6"/>
<path opacity="0.4" d="M325.802 175.411H502.066L502.774 167.779H326.499L325.802 175.411Z" fill="#E6E6E6"/>
<path opacity="0.4" d="M325.802 184.179H502.066L502.774 176.558H326.499L325.802 184.179Z" fill="#E6E6E6"/>
<path d="M96.2365 240.547H132.805V199.96H96.2365V240.547Z" fill="#E6E6E6"/>
<path d="M92.1001 240.547H131.573V199.96H92.1001V240.547Z" fill="#F5F5F5"/>
<path d="M128.273 237.344V203.152H95.4121V237.344H128.273Z" fill="white"/>
<path d="M120.302 220.877V219.63C120.302 218.554 120.083 217.489 119.657 216.496C119.231 215.502 118.607 214.599 117.82 213.839C117.033 213.079 116.099 212.477 115.072 212.066C114.044 211.656 112.943 211.445 111.831 211.447C109.595 211.459 107.456 212.326 105.879 213.859C104.303 215.393 103.418 217.467 103.418 219.63V220.877C103.418 223.047 104.309 225.129 105.896 226.663C107.482 228.198 109.634 229.06 111.877 229.06C114.115 229.051 116.258 228.185 117.836 226.651C119.415 225.118 120.302 223.042 120.302 220.877Z" fill="#F5F5F5"/>
<path d="M187.442 226.003H237.652V170.05H187.442V226.003Z" fill="#E6E6E6"/>
<path d="M181.748 226.003H236.153V170.05H181.748V226.003Z" fill="#F5F5F5"/>
<path d="M231.599 221.608V174.479H186.304V221.608H231.599Z" fill="white"/>
<path d="M210.845 189.293L219.443 203.702C219.635 204.024 219.736 204.388 219.736 204.76C219.736 205.131 219.635 205.495 219.443 205.816C219.251 206.138 218.975 206.404 218.642 206.59C218.31 206.775 217.933 206.872 217.549 206.872H200.352C199.968 206.872 199.591 206.775 199.259 206.59C198.926 206.404 198.65 206.138 198.458 205.816C198.266 205.495 198.165 205.131 198.165 204.76C198.165 204.388 198.266 204.024 198.458 203.702L207.057 189.293C207.25 188.973 207.527 188.709 207.859 188.524C208.192 188.34 208.568 188.244 208.951 188.244C209.333 188.244 209.71 188.34 210.042 188.524C210.374 188.709 210.651 188.973 210.845 189.293Z" fill="#F5F5F5"/>
<path d="M104.604 429.806H132.201V345.641H104.604L104.604 429.806Z" fill="#E6E6E6"/>
<path d="M109.844 429.818H104.604V415.397H115.34L109.844 429.818Z" fill="#F0F0F0"/>
<path d="M207.731 429.806H235.328V345.641H207.731V429.806Z" fill="#E6E6E6"/>
<path d="M104.614 420.96H212.309V345.641H104.614L104.614 420.96Z" fill="#F0F0F0"/>
<path d="M108.67 350.373V402.943H156.695V350.373H108.67Z" fill="#E6E6E6"/>
<path d="M160.217 350.373V402.943H208.242V350.373H160.217Z" fill="#E6E6E6"/>
<path d="M179.483 354.408H188.976C191.015 354.414 193.034 354.019 194.91 353.246C196.786 352.473 198.48 351.339 199.888 349.912H168.514C169.928 351.347 171.631 352.486 173.517 353.259C175.404 354.032 177.434 354.423 179.483 354.408Z" fill="#F0F0F0"/>
<path d="M127.448 354.408H136.953C138.992 354.414 141.011 354.018 142.886 353.245C144.762 352.472 146.456 351.338 147.864 349.912H116.49C117.904 351.344 119.605 352.482 121.489 353.255C123.373 354.028 125.401 354.42 127.448 354.408Z" fill="#F0F0F0"/>
<path d="M207.069 429.818H212.309V415.397H201.572L207.069 429.818Z" fill="#F0F0F0"/>
<path d="M178.657 334.367C178.655 335.513 179.004 336.633 179.66 337.586C180.316 338.54 181.25 339.284 182.343 339.723C183.437 340.163 184.64 340.28 185.802 340.057C186.963 339.835 188.031 339.285 188.869 338.476C189.707 337.667 190.278 336.635 190.51 335.512C190.742 334.389 190.624 333.224 190.171 332.166C189.719 331.108 188.952 330.203 187.967 329.566C186.983 328.93 185.826 328.59 184.642 328.59C183.057 328.593 181.539 329.202 180.417 330.285C179.296 331.367 178.663 332.835 178.657 334.367Z" fill="#E0E0E0"/>
<path d="M187.35 336.391C190.648 336.391 193.322 333.804 193.322 330.613C193.322 327.423 190.648 324.836 187.35 324.836C184.051 324.836 181.377 327.423 181.377 330.613C181.377 333.804 184.051 336.391 187.35 336.391Z" fill="#E0E0E0"/>
<path d="M148.736 335.3C148.736 336.443 149.087 337.56 149.743 338.51C150.399 339.46 151.332 340.201 152.423 340.638C153.515 341.075 154.716 341.19 155.874 340.967C157.033 340.744 158.097 340.194 158.932 339.386C159.768 338.578 160.336 337.548 160.567 336.428C160.797 335.307 160.679 334.145 160.227 333.09C159.775 332.034 159.009 331.132 158.027 330.497C157.045 329.862 155.89 329.523 154.709 329.523C153.125 329.523 151.606 330.132 150.486 331.215C149.366 332.299 148.736 333.768 148.736 335.3Z" fill="#E0E0E0"/>
<path d="M195.344 338.65C199.393 338.65 202.676 335.475 202.676 331.558C202.676 327.64 199.393 324.465 195.344 324.465C191.294 324.465 188.012 327.64 188.012 331.558C188.012 335.475 191.294 338.65 195.344 338.65Z" fill="#E0E0E0"/>
<path d="M173.486 325.027C173.484 326.43 173.912 327.803 174.716 328.97C175.521 330.138 176.665 331.049 178.005 331.588C179.344 332.126 180.819 332.268 182.242 331.996C183.665 331.723 184.973 331.049 185.999 330.057C187.026 329.066 187.725 327.802 188.009 326.426C188.293 325.05 188.148 323.623 187.594 322.327C187.039 321.03 186.099 319.922 184.893 319.142C183.687 318.362 182.269 317.946 180.819 317.946C178.877 317.949 177.015 318.695 175.641 320.022C174.267 321.349 173.492 323.149 173.486 325.027Z" fill="#E0E0E0"/>
<path d="M161.866 326.837C161.864 328.24 162.292 329.612 163.096 330.78C163.901 331.948 165.045 332.859 166.384 333.397C167.724 333.936 169.199 334.078 170.622 333.805C172.045 333.533 173.352 332.858 174.379 331.867C175.406 330.876 176.105 329.612 176.389 328.236C176.673 326.86 176.528 325.433 175.974 324.136C175.419 322.84 174.479 321.731 173.273 320.952C172.067 320.172 170.649 319.755 169.198 319.755C167.256 319.755 165.393 320.501 164.018 321.829C162.643 323.156 161.869 324.958 161.866 326.837Z" fill="#E0E0E0"/>
<path d="M166.782 332.558C166.782 333.892 167.191 335.196 167.957 336.305C168.723 337.414 169.812 338.278 171.086 338.788C172.36 339.299 173.762 339.432 175.114 339.172C176.467 338.912 177.709 338.27 178.684 337.327C179.659 336.383 180.323 335.182 180.592 333.874C180.861 332.565 180.723 331.209 180.196 329.977C179.668 328.745 178.774 327.691 177.628 326.95C176.481 326.209 175.133 325.814 173.754 325.814C171.905 325.814 170.132 326.524 168.824 327.789C167.517 329.054 166.782 330.769 166.782 332.558Z" fill="#E0E0E0"/>
<path d="M154.65 332.119C154.65 333.56 155.092 334.968 155.919 336.166C156.747 337.364 157.923 338.297 159.299 338.849C160.675 339.4 162.189 339.544 163.649 339.263C165.11 338.982 166.451 338.288 167.505 337.27C168.558 336.251 169.275 334.953 169.565 333.54C169.856 332.128 169.707 330.663 169.137 329.332C168.567 328.001 167.602 326.864 166.363 326.063C165.125 325.263 163.669 324.836 162.18 324.836C160.183 324.836 158.268 325.603 156.856 326.969C155.444 328.335 154.65 330.188 154.65 332.119Z" fill="#E0E0E0"/>
<path d="M207.033 334.367C207.033 334.367 206.22 345.607 174.765 345.607C143.309 345.607 142.484 334.367 142.484 334.367H207.033Z" fill="#F0F0F0"/>
<path d="M290.5 480.577C414.93 480.577 515.801 474.881 515.801 467.854C515.801 460.827 414.93 455.13 290.5 455.13C166.071 455.13 65.2002 460.827 65.2002 467.854C65.2002 474.881 166.071 480.577 290.5 480.577Z" fill="#F5F5F5"/>
<path d="M357.629 134.768C356.684 131.747 355.431 128.825 353.887 126.045L356.211 118.683L341.187 104.139L333.576 106.387C330.702 104.894 327.681 103.681 324.559 102.767L320.817 96.0233H299.552L295.822 102.767C292.699 103.679 289.678 104.892 286.805 106.387L279.194 104.139L264.158 118.683L266.482 126.045C264.947 128.828 263.698 131.749 262.752 134.768L255.722 138.387V158.956L262.752 162.564C263.696 165.583 264.945 168.505 266.482 171.286L264.158 178.649L279.194 193.193L286.805 190.945C289.681 192.432 292.701 193.64 295.822 194.553L299.552 201.297H320.817L324.559 194.553C327.679 193.638 330.699 192.429 333.576 190.945L341.187 193.193L356.223 178.649L353.899 171.286C355.445 168.507 356.698 165.585 357.641 162.564L364.671 158.956V138.387L357.629 134.768ZM310.185 177.884C304.209 177.884 298.368 176.17 293.4 172.959C288.431 169.748 284.559 165.184 282.272 159.844C279.986 154.504 279.387 148.628 280.553 142.959C281.719 137.29 284.596 132.083 288.821 127.996C293.047 123.909 298.43 121.125 304.291 119.998C310.151 118.87 316.226 119.449 321.746 121.661C327.267 123.873 331.985 127.618 335.305 132.424C338.625 137.23 340.397 142.88 340.397 148.66C340.397 156.411 337.214 163.844 331.548 169.325C325.882 174.805 318.197 177.884 310.185 177.884Z" fill="#407BFF"/>
<path opacity="0.2" d="M357.629 134.768C356.684 131.747 355.431 128.825 353.887 126.045L356.211 118.683L341.187 104.139L333.576 106.387C330.702 104.894 327.681 103.681 324.559 102.767L320.817 96.0233H299.552L295.822 102.767C292.699 103.679 289.678 104.892 286.805 106.387L279.194 104.139L264.158 118.683L266.482 126.045C264.947 128.828 263.698 131.749 262.752 134.768L255.722 138.387V158.956L262.752 162.564C263.696 165.583 264.945 168.505 266.482 171.286L264.158 178.649L279.194 193.193L286.805 190.945C289.681 192.432 292.701 193.64 295.822 194.553L299.552 201.297H320.817L324.559 194.553C327.679 193.638 330.699 192.429 333.576 190.945L341.187 193.193L356.223 178.649L353.899 171.286C355.445 168.507 356.698 165.585 357.641 162.564L364.671 158.956V138.387L357.629 134.768ZM310.185 177.884C304.209 177.884 298.368 176.17 293.4 172.959C288.431 169.748 284.559 165.184 282.272 159.844C279.986 154.504 279.387 148.628 280.553 142.959C281.719 137.29 284.596 132.083 288.821 127.996C293.047 123.909 298.43 121.125 304.291 119.998C310.151 118.87 316.226 119.449 321.746 121.661C327.267 123.873 331.985 127.618 335.305 132.424C338.625 137.23 340.397 142.88 340.397 148.66C340.397 156.411 337.214 163.844 331.548 169.325C325.882 174.805 318.197 177.884 310.185 177.884Z" fill="white"/>
<path d="M310.184 138.983C308.203 138.983 306.267 139.551 304.62 140.615C302.972 141.68 301.689 143.193 300.93 144.964C300.172 146.734 299.974 148.682 300.36 150.562C300.747 152.441 301.701 154.167 303.102 155.522C304.503 156.878 306.287 157.8 308.23 158.174C310.173 158.548 312.187 158.356 314.018 157.623C315.848 156.889 317.412 155.648 318.513 154.054C319.613 152.461 320.201 150.588 320.201 148.671C320.201 146.102 319.146 143.637 317.267 141.82C315.389 140.003 312.841 138.983 310.184 138.983Z" fill="#407BFF"/>
<path d="M508.957 167.397C507.606 163.079 505.82 158.9 503.623 154.921L506.947 144.4L485.484 123.64L474.596 126.866C470.497 124.717 466.178 122.984 461.71 121.695L456.376 111.984H425.99L420.645 121.695C416.178 122.988 411.86 124.721 407.758 126.866L396.882 123.64L375.397 144.423L378.72 154.943C376.513 158.918 374.726 163.098 373.386 167.42L363.335 172.579V201.972L373.375 207.142C374.713 211.461 376.5 215.637 378.708 219.607L375.385 230.117L396.87 250.899L407.747 247.685C411.852 249.823 416.175 251.548 420.645 252.833L425.99 262.555H456.376L461.71 252.844C466.175 251.546 470.492 249.813 474.596 247.673L485.484 250.888L506.97 230.105L503.646 219.585C505.837 215.609 507.616 211.434 508.957 207.119L518.997 201.949V172.556L508.957 167.397ZM441.177 240.536C430.282 240.536 419.63 237.411 410.571 231.555C401.511 225.7 394.45 217.377 390.28 207.64C386.111 197.903 385.02 187.188 387.145 176.851C389.271 166.514 394.518 157.019 402.223 149.566C409.927 142.114 419.743 137.038 430.43 134.982C441.116 132.926 452.193 133.981 462.26 138.015C472.326 142.048 480.93 148.878 486.983 157.641C493.037 166.405 496.268 176.708 496.268 187.247C496.268 194.245 494.843 201.175 492.074 207.64C489.306 214.105 485.248 219.98 480.132 224.928C475.017 229.876 468.943 233.802 462.26 236.48C455.576 239.158 448.412 240.536 441.177 240.536Z" fill="#407BFF"/>
<path d="M441.177 141.433C431.807 141.435 422.649 144.125 414.86 149.161C407.071 154.198 401 161.356 397.416 169.729C393.832 178.103 392.896 187.317 394.725 196.205C396.554 205.094 401.067 213.258 407.693 219.666C414.319 226.074 422.761 230.437 431.95 232.204C441.14 233.971 450.665 233.063 459.32 229.594C467.976 226.126 475.375 220.252 480.58 212.716C485.785 205.181 488.563 196.321 488.563 187.258C488.548 175.107 483.55 163.458 474.666 154.867C465.782 146.276 453.738 141.445 441.177 141.433ZM441.177 226.98C433.054 226.983 425.114 224.655 418.359 220.292C411.604 215.928 406.339 209.725 403.229 202.467C400.119 195.209 399.304 187.222 400.888 179.516C402.471 171.81 406.381 164.731 412.123 159.175C417.866 153.618 425.183 149.834 433.149 148.3C441.115 146.767 449.373 147.553 456.877 150.559C464.382 153.565 470.796 158.656 475.309 165.189C479.821 171.721 482.23 179.402 482.23 187.258C482.218 197.788 477.889 207.883 470.193 215.329C462.497 222.775 452.062 226.966 441.177 226.98Z" fill="#407BFF"/>
<path opacity="0.2" d="M441.177 141.433C431.807 141.435 422.649 144.125 414.86 149.161C407.071 154.198 401 161.356 397.416 169.729C393.832 178.103 392.896 187.317 394.725 196.205C396.554 205.094 401.067 213.258 407.693 219.666C414.319 226.074 422.761 230.437 431.95 232.204C441.14 233.971 450.665 233.063 459.32 229.594C467.976 226.126 475.375 220.252 480.58 212.716C485.785 205.181 488.563 196.321 488.563 187.258C488.548 175.107 483.55 163.458 474.666 154.867C465.782 146.276 453.738 141.445 441.177 141.433ZM441.177 226.98C433.054 226.983 425.114 224.655 418.359 220.292C411.604 215.928 406.339 209.725 403.229 202.467C400.119 195.209 399.304 187.222 400.888 179.516C402.471 171.81 406.381 164.731 412.123 159.175C417.866 153.618 425.183 149.834 433.149 148.3C441.115 146.767 449.373 147.553 456.877 150.559C464.382 153.565 470.796 158.656 475.309 165.189C479.821 171.721 482.23 179.402 482.23 187.258C482.218 197.788 477.889 207.883 470.193 215.329C462.497 222.775 452.062 226.966 441.177 226.98Z" fill="black"/>
<path d="M332.332 265.444C332.024 265.444 331.728 265.325 331.51 265.115C331.292 264.904 331.17 264.618 331.17 264.32V262.072C331.17 261.774 331.292 261.488 331.51 261.277C331.728 261.066 332.024 260.948 332.332 260.948C332.64 260.948 332.936 261.066 333.154 261.277C333.371 261.488 333.494 261.774 333.494 262.072V264.32C333.494 264.618 333.371 264.904 333.154 265.115C332.936 265.325 332.64 265.444 332.332 265.444Z" fill="#407BFF"/>
<path d="M314.24 236.4C313.174 235.736 312.339 234.776 311.847 233.646C311.725 233.372 311.496 233.155 311.209 233.045C310.922 232.934 310.602 232.938 310.319 233.056C310.035 233.174 309.812 233.395 309.697 233.673C309.583 233.95 309.587 234.26 309.709 234.534C310.391 236.069 311.527 237.375 312.974 238.288C313.161 238.405 313.379 238.467 313.601 238.468C313.853 238.47 314.098 238.392 314.301 238.248C314.503 238.103 314.651 237.899 314.723 237.666C314.795 237.433 314.787 237.183 314.7 236.955C314.613 236.726 314.452 236.532 314.24 236.4Z" fill="#407BFF"/>
<path d="M310.184 222.361C310.493 222.361 310.788 222.242 311.006 222.032C311.224 221.821 311.346 221.535 311.346 221.237V216.932C311.346 216.634 311.224 216.348 311.006 216.137C310.788 215.926 310.493 215.808 310.184 215.808C309.876 215.808 309.581 215.926 309.363 216.137C309.145 216.348 309.022 216.634 309.022 216.932V221.237C309.022 221.535 309.145 221.821 309.363 222.032C309.581 222.242 309.876 222.361 310.184 222.361Z" fill="#407BFF"/>
<path d="M322.281 237.389H317.819C317.511 237.389 317.215 237.507 316.998 237.718C316.78 237.929 316.657 238.215 316.657 238.513C316.657 238.811 316.78 239.097 316.998 239.308C317.215 239.518 317.511 239.637 317.819 239.637H322.281C322.589 239.637 322.885 239.518 323.103 239.308C323.321 239.097 323.443 238.811 323.443 238.513C323.443 238.215 323.321 237.929 323.103 237.718C322.885 237.507 322.589 237.389 322.281 237.389Z" fill="#407BFF"/>
<path d="M311.346 229.858V225.553C311.346 225.255 311.224 224.969 311.006 224.758C310.788 224.547 310.493 224.429 310.184 224.429C309.876 224.429 309.581 224.547 309.363 224.758C309.145 224.969 309.022 225.255 309.022 225.553V229.858C309.022 230.156 309.145 230.442 309.363 230.653C309.581 230.864 309.876 230.982 310.184 230.982C310.493 230.982 310.788 230.864 311.006 230.653C311.224 230.442 311.346 230.156 311.346 229.858Z" fill="#407BFF"/>
<path d="M333.424 244.695C333.384 244.4 333.224 244.132 332.98 243.951C332.736 243.77 332.428 243.69 332.123 243.728C331.971 243.753 331.827 243.806 331.697 243.885C331.567 243.964 331.454 244.067 331.365 244.188C331.277 244.309 331.214 244.446 331.18 244.591C331.147 244.736 331.143 244.886 331.17 245.032C331.207 245.293 331.227 245.556 331.228 245.819V249.191C331.228 249.489 331.351 249.775 331.568 249.986C331.786 250.196 332.082 250.315 332.39 250.315C332.698 250.315 332.994 250.196 333.212 249.986C333.43 249.775 333.552 249.489 333.552 249.191V245.819C333.535 245.442 333.492 245.066 333.424 244.695Z" fill="#407BFF"/>
<path d="M332.332 252.327C332.024 252.327 331.728 252.445 331.51 252.656C331.292 252.867 331.17 253.153 331.17 253.451V257.767C331.17 258.065 331.292 258.351 331.51 258.562C331.728 258.773 332.024 258.891 332.332 258.891C332.64 258.891 332.936 258.773 333.154 258.562C333.371 258.351 333.494 258.065 333.494 257.767V253.451C333.494 253.153 333.371 252.867 333.154 252.656C332.936 252.445 332.64 252.327 332.332 252.327Z" fill="#407BFF"/>
<path d="M331.321 240.233C330.184 238.976 328.681 238.079 327.01 237.659C326.862 237.622 326.708 237.613 326.557 237.634C326.405 237.655 326.26 237.704 326.128 237.779C325.996 237.854 325.881 237.954 325.789 238.072C325.698 238.19 325.631 238.325 325.593 238.468C325.554 238.611 325.546 238.76 325.567 238.906C325.589 239.053 325.64 239.194 325.717 239.321C325.795 239.448 325.898 239.56 326.02 239.649C326.142 239.737 326.281 239.802 326.429 239.839C327.65 240.144 328.748 240.798 329.578 241.716C329.687 241.836 329.821 241.932 329.971 241.998C330.122 242.064 330.285 242.098 330.45 242.098C330.673 242.098 330.891 242.036 331.079 241.918C331.267 241.801 331.415 241.634 331.507 241.437C331.599 241.24 331.63 241.022 331.597 240.808C331.564 240.595 331.469 240.395 331.321 240.233Z" fill="#407BFF"/>
<path d="M310.184 213.695C309.876 213.695 309.581 213.576 309.363 213.366C309.145 213.155 309.022 212.869 309.022 212.571V210.323C309.022 210.025 309.145 209.739 309.363 209.528C309.581 209.317 309.876 209.199 310.184 209.199C310.493 209.199 310.788 209.317 311.006 209.528C311.224 209.739 311.346 210.025 311.346 210.323V212.571C311.346 212.869 311.224 213.155 311.006 213.366C310.788 213.576 310.493 213.695 310.184 213.695Z" fill="#407BFF"/>
<path d="M387.376 322.037H118.326V326.207H387.376V322.037Z" fill="#407BFF"/>
<path d="M387.376 326.207H445.755V322.037H387.376V326.207Z" fill="#407BFF"/>
<path opacity="0.2" d="M387.376 326.207H445.755V322.037H387.376V326.207Z" fill="black"/>
<path d="M426.256 330.67H137.824L128.18 326.207H435.901L426.256 330.67Z" fill="#407BFF"/>
<path opacity="0.6" d="M426.256 330.67H137.824L128.18 326.207H435.901L426.256 330.67Z" fill="white"/>
<path d="M146.539 330.67V463.684H150.234L154.882 330.67H146.539Z" fill="#407BFF"/>
<path d="M190.161 330.67V463.684H193.856L198.504 330.67H190.161Z" fill="#407BFF"/>
<path d="M426.256 330.67V463.684H422.573L417.913 330.67H426.256Z" fill="#407BFF"/>
<path d="M382.646 330.67V463.684H378.951L374.303 330.67H382.646Z" fill="#407BFF"/>
<path d="M294.845 271.547L282.702 319.396L282.365 322.037H366.122L366.471 319.396L378.602 271.547H294.845Z" fill="#407BFF"/>
<path opacity="0.3" d="M294.845 271.547L282.702 319.396L282.365 322.037H366.122L366.471 319.396L378.602 271.547H294.845Z" fill="black"/>
<path d="M376.035 271.547H292.266L280.135 319.396H363.892L376.035 271.547Z" fill="#407BFF"/>
<path d="M362.114 317.204L373.153 273.739H294.044L283.017 317.204H362.114Z" fill="white"/>
<path d="M342.07 319.396L341.721 322.037H249.493L249.83 319.396H342.07Z" fill="#407BFF"/>
<path opacity="0.6" d="M342.07 319.396L341.721 322.037H249.493L249.83 319.396H342.07Z" fill="white"/>
<path d="M167.839 313.337C167.781 311.625 167.088 309.991 165.887 308.732C164.686 307.473 163.057 306.674 161.297 306.481V305.188C161.296 305.114 161.279 305.04 161.247 304.972C161.216 304.903 161.171 304.841 161.115 304.79C161.058 304.739 160.992 304.699 160.92 304.673C160.847 304.647 160.77 304.635 160.693 304.638H148.143C148.065 304.635 147.988 304.647 147.915 304.673C147.841 304.699 147.774 304.738 147.717 304.79C147.66 304.841 147.614 304.902 147.581 304.971C147.549 305.039 147.53 305.113 147.527 305.188V322.048H161.297V320.205C163.059 320.014 164.691 319.214 165.893 317.952C167.095 316.691 167.786 315.052 167.839 313.337ZM161.297 318.025V308.662C162.458 308.827 163.519 309.391 164.286 310.251C165.054 311.11 165.476 312.208 165.476 313.343C165.476 314.478 165.054 315.576 164.286 316.436C163.519 317.295 162.458 317.859 161.297 318.025Z" fill="#407BFF"/>
<path d="M402.702 322.037H414.369L410.917 297.32H402.702V322.037Z" fill="#263238"/>
<path d="M385.598 322.037H407.699L411.801 293.105H389.711L385.598 322.037Z" fill="#407BFF"/>
<path opacity="0.3" d="M385.598 322.037H407.699L411.801 293.105H389.711L385.598 322.037Z" fill="black"/>
<path d="M382.646 322.037H405.642L409.756 293.105H386.76L382.646 322.037Z" fill="#407BFF"/>
<path opacity="0.4" d="M403.608 319.756L407.071 295.387H388.793L385.33 319.756H403.608Z" fill="white"/>
<path d="M229.541 279.325L228.589 280.314L227.566 281.438C226.88 282.203 226.195 282.978 225.544 283.776C224.243 285.372 222.988 287.002 221.814 288.677C219.479 291.916 217.53 295.4 216.004 299.063C215.293 300.804 214.741 302.601 214.354 304.435C214.168 305.47 214.052 305.919 213.994 306.357C213.93 306.707 213.93 307.065 213.994 307.414C214.189 307.963 214.495 308.47 214.893 308.904C215.292 309.338 215.777 309.691 216.318 309.943C217.102 310.411 217.926 310.813 218.781 311.146C219.231 311.326 219.695 311.494 220.176 311.651C220.617 311.809 221.175 311.966 221.524 312.101V318.294C220.71 318.407 220.118 318.497 219.432 318.542C218.746 318.587 218.084 318.598 217.399 318.542C215.989 318.514 214.587 318.341 213.215 318.025C211.67 317.673 210.189 317.097 208.823 316.316C207.217 315.407 205.836 314.168 204.779 312.686C203.691 311.108 202.97 309.321 202.664 307.448C202.587 307.009 202.536 306.566 202.513 306.121C202.49 305.695 202.49 305.267 202.513 304.84V304.211C202.5 304.042 202.5 303.873 202.513 303.705L202.606 302.716C202.904 300.147 203.464 297.613 204.28 295.151C205.853 290.423 208.069 285.917 210.868 281.753C212.213 279.708 213.676 277.738 215.249 275.852C216.027 274.908 216.829 273.986 217.666 273.076C218.073 272.615 218.502 272.165 218.944 271.716C219.386 271.266 219.792 270.873 220.397 270.311L229.541 279.325Z" fill="#B55B52"/>
<path d="M219.211 311.966L224.626 308.122L227.705 318.89C227.705 318.89 222.906 320.61 219.246 318.294L219.211 311.966Z" fill="#B55B52"/>
<path d="M232.144 305.537L234.259 314.551L227.705 318.89L224.626 308.122L232.144 305.537Z" fill="#B55B52"/>
<path d="M266.389 238.007C266.145 238.67 266.319 239.333 266.772 239.479C267.225 239.626 267.783 239.221 268.016 238.558C268.248 237.895 268.085 237.22 267.644 237.074C267.202 236.928 266.633 237.333 266.389 238.007Z" fill="#263238"/>
<path d="M266.26 239.311C266.351 241.626 266.769 243.918 267.504 246.122C266.918 246.285 266.304 246.322 265.702 246.233C265.1 246.144 264.526 245.93 264.018 245.605L266.26 239.311Z" fill="#A02724"/>
<path d="M265.273 233.489C265.36 233.517 265.454 233.517 265.54 233.489C266.05 233.324 266.593 233.279 267.124 233.357C267.656 233.435 268.16 233.634 268.596 233.938C268.684 233.999 268.792 234.027 268.899 234.015C269.006 234.002 269.105 233.951 269.175 233.872C269.246 233.793 269.282 233.691 269.279 233.586C269.275 233.482 269.23 233.383 269.154 233.309C268.609 232.916 267.974 232.654 267.303 232.547C266.632 232.439 265.944 232.488 265.296 232.691C265.212 232.719 265.138 232.772 265.086 232.842C265.034 232.913 265.006 232.997 265.006 233.084C265.006 233.171 265.034 233.255 265.086 233.326C265.138 233.396 265.212 233.449 265.296 233.477L265.273 233.489Z" fill="#263238"/>
<path d="M240.906 240.457C242.207 246.853 243.497 258.576 238.872 262.847C238.872 262.847 240.685 269.333 252.979 269.333C266.493 269.333 259.439 262.847 259.439 262.847C252.061 261.139 252.247 255.845 253.537 250.877L240.906 240.457Z" fill="#B55B52"/>
<path d="M237.106 265.073C236.13 263.016 235.073 260.667 237.269 259.936C239.698 259.127 252.991 258.295 257.569 259.813C258.175 259.972 258.741 260.246 259.235 260.62C259.73 260.994 260.142 261.459 260.448 261.988C260.754 262.518 260.948 263.101 261.019 263.704C261.089 264.307 261.034 264.918 260.858 265.5L237.106 265.073Z" fill="#263238"/>
<path d="M283.528 276.043C286.375 281 289.431 286.103 292.522 291.004C295.613 295.904 298.855 300.782 302.317 305.233C303.177 306.357 304.072 307.425 304.955 308.493C305.397 309.044 305.861 309.493 306.315 309.999L306.989 310.741L307.163 310.932L307.244 311.022L307.326 311.123C307.867 311.63 308.518 312.014 309.231 312.247C310.329 312.617 311.462 312.884 312.613 313.045C318.261 313.597 323.956 313.533 329.589 312.854L331.356 318.811C329.787 319.486 328.323 319.935 326.766 320.497C325.209 321.059 323.675 321.43 322.118 321.812C318.817 322.613 315.434 323.051 312.032 323.116C310.122 323.146 308.215 322.961 306.349 322.566C304.059 322.126 301.9 321.196 300.028 319.845L299.25 319.227L299.064 319.07L298.947 318.958L298.727 318.744L297.82 317.878C297.228 317.305 296.577 316.754 296.042 316.148C294.88 314.967 293.788 313.787 292.777 312.573C288.718 307.828 284.972 302.838 281.564 297.635C279.867 295.073 278.233 292.484 276.66 289.868C275.08 287.227 273.558 284.642 272.082 281.854L283.528 276.043Z" fill="#B55B52"/>
<path d="M222.685 264.826C214.203 266.703 204.488 289.059 204.488 289.059L221.512 300.299C225.746 294.426 229.502 288.244 232.748 281.809C237.78 271.626 231.354 262.904 222.685 264.826Z" fill="#407BFF"/>
<path opacity="0.2" d="M228.751 279.078L220.71 299.805L221.5 300.344C221.5 300.344 224.986 295.612 228.751 289.228V279.078Z" fill="black"/>
<path d="M273.349 265.264C273.349 265.264 282.97 275.785 273.883 340.864H225.509C225.184 333.682 229.843 298.658 222.686 264.814C228.031 263.819 233.438 263.158 238.872 262.836C245.722 262.448 252.59 262.448 259.44 262.836C264.134 263.293 268.785 264.105 273.349 265.264Z" fill="#407BFF"/>
<path opacity="0.2" d="M267.969 284.091C269.231 291.478 272.531 298.398 277.52 304.121C277.718 299.928 277.799 296.163 277.788 292.802L267.969 284.091Z" fill="black"/>
<path d="M263.774 272.368C262.612 280.652 279.461 301.805 279.461 301.805L296.415 290.565C296.415 290.565 291.709 278.909 283.796 271.266C274.778 262.499 265.099 263.353 263.774 272.368Z" fill="#407BFF"/>
<path d="M327.684 312.91L334.586 310.168L341.686 315.361C341.686 315.361 334.911 321.161 328.753 318.901L327.684 312.91Z" fill="#B55B52"/>
<path d="M339.142 309.898L344.347 313.495L341.652 315.361L334.552 310.168L339.142 309.898Z" fill="#B55B52"/>
<path d="M243.916 228.858C241.499 237.22 239.64 241.997 242.405 247.629C246.553 256.115 258.348 255.879 263.321 248.393C267.783 241.649 270.99 229.105 263.879 223.069C262.318 221.728 260.428 220.794 258.388 220.359C256.349 219.923 254.229 219.998 252.228 220.578C250.228 221.158 248.414 222.223 246.959 223.673C245.504 225.122 244.457 226.907 243.916 228.858Z" fill="#B55B52"/>
<path d="M262.322 228.948C258.836 238.547 254.734 249.09 244.717 247.089C238.257 245.796 237.745 235.737 235.421 231.162C233.365 227.149 233.492 219.079 237.745 218.978C235.84 216.303 245.473 206.513 252.049 211.683C253.734 209.435 265.877 202.815 274.871 213.324C283.342 223.26 279.194 231.544 262.322 228.948Z" fill="#263238"/>
<path d="M254.478 235.085C254.245 237.229 254.743 239.388 255.895 241.233C257.441 243.638 259.707 242.717 260.543 240.255C261.287 238.007 261.368 234.129 259.219 232.567C257.069 231.005 254.803 232.499 254.478 235.085Z" fill="#B55B52"/>
<path d="M328.707 457.333C329.869 457.333 331.031 457.176 331.368 456.67C331.464 456.536 331.515 456.378 331.515 456.215C331.515 456.052 331.464 455.893 331.368 455.76C331.213 455.523 330.973 455.351 330.694 455.276C329.183 454.883 326.046 456.625 325.895 456.704C325.855 456.723 325.823 456.754 325.804 456.793C325.785 456.832 325.78 456.876 325.79 456.917C325.798 456.958 325.817 456.995 325.846 457.025C325.875 457.055 325.912 457.076 325.953 457.086C326.862 457.246 327.783 457.329 328.707 457.333ZM330.148 455.636C330.282 455.618 330.419 455.618 330.554 455.636C330.642 455.652 330.725 455.686 330.797 455.737C330.87 455.787 330.93 455.853 330.973 455.928C331.124 456.187 331.077 456.31 330.973 456.378C330.554 456.951 328.265 456.962 326.58 456.726C327.685 456.142 328.897 455.772 330.148 455.636Z" fill="#407BFF"/>
<path d="M325.975 457.086H326.068C327.161 456.614 329.322 454.725 329.148 453.714C329.148 453.478 328.939 453.197 328.358 453.129C328.149 453.112 327.939 453.135 327.739 453.196C327.54 453.258 327.355 453.358 327.196 453.489C326.034 454.399 325.801 456.76 325.79 456.861C325.785 456.897 325.79 456.933 325.805 456.967C325.819 457 325.842 457.03 325.871 457.052C325.903 457.07 325.939 457.082 325.975 457.086ZM328.183 453.545H328.311C328.695 453.545 328.718 453.736 328.729 453.781C328.834 454.377 327.358 455.861 326.243 456.501C326.335 455.512 326.741 454.574 327.405 453.815C327.621 453.636 327.898 453.54 328.183 453.545Z" fill="#407BFF"/>
<path d="M315.46 456.884H324.5L326.557 436.618H317.517L315.46 456.884Z" fill="#B55B52"/>
<path d="M325.012 455.872H315.146C314.965 455.873 314.789 455.933 314.647 456.044C314.506 456.154 314.407 456.307 314.368 456.479L312.578 464.212C312.532 464.4 312.531 464.597 312.575 464.785C312.62 464.974 312.708 465.151 312.834 465.301C312.959 465.452 313.119 465.573 313.3 465.655C313.481 465.737 313.68 465.778 313.88 465.774C317.435 465.718 322.583 465.516 327.057 465.516C332.297 465.516 336.818 465.786 342.953 465.786C346.671 465.786 347.706 462.155 346.148 461.829C339.072 460.334 333.297 460.177 327.185 456.524C326.536 456.117 325.784 455.891 325.012 455.872Z" fill="#263238"/>
<path opacity="0.2" d="M326.545 436.629L325.499 447.071H316.447L317.505 436.629H326.545Z" fill="black"/>
<path d="M292.464 457.322C292.847 457.37 293.236 457.345 293.61 457.246C293.983 457.148 294.332 456.979 294.637 456.749C294.743 456.606 294.801 456.435 294.801 456.26C294.801 456.084 294.743 455.913 294.637 455.771C294.568 455.647 294.472 455.54 294.355 455.456C294.239 455.373 294.105 455.315 293.963 455.287C292.638 454.984 290.14 456.636 290.035 456.704C290.002 456.729 289.976 456.761 289.96 456.799C289.943 456.836 289.937 456.877 289.942 456.917C289.95 456.956 289.97 456.992 289.999 457.019C290.028 457.047 290.065 457.067 290.105 457.075C290.88 457.238 291.67 457.321 292.464 457.322ZM293.626 455.658C293.71 455.647 293.796 455.647 293.881 455.658C293.964 455.67 294.043 455.701 294.112 455.748C294.181 455.794 294.237 455.856 294.276 455.928C294.474 456.277 294.358 456.411 294.276 456.468C293.893 456.951 292.045 456.962 290.686 456.749C291.56 456.176 292.557 455.803 293.602 455.658H293.626Z" fill="#407BFF"/>
<path d="M290.163 457.086H290.256C291.197 456.591 293.01 454.681 292.813 453.714C292.783 453.559 292.698 453.419 292.573 453.319C292.447 453.218 292.29 453.163 292.127 453.163C291.965 453.144 291.8 453.158 291.644 453.204C291.488 453.251 291.344 453.329 291.221 453.433C290.175 454.265 289.954 456.805 289.942 456.895C289.942 456.933 289.951 456.97 289.969 457.003C289.988 457.037 290.014 457.065 290.047 457.086C290.085 457.097 290.125 457.097 290.163 457.086ZM291.988 453.545H292.08C292.359 453.545 292.383 453.703 292.394 453.759C292.51 454.332 291.348 455.782 290.419 456.468C290.481 455.47 290.854 454.514 291.488 453.725C291.627 453.609 291.804 453.545 291.988 453.545Z" fill="#407BFF"/>
<path d="M279.798 456.884H288.838L293.382 436.618H284.341L279.798 456.884Z" fill="#B55B52"/>
<path d="M289.477 455.872H279.321C279.141 455.873 278.967 455.934 278.827 456.045C278.688 456.155 278.591 456.308 278.554 456.479L276.765 464.212C276.723 464.402 276.726 464.598 276.773 464.787C276.82 464.976 276.911 465.152 277.038 465.302C277.166 465.452 277.326 465.572 277.508 465.654C277.69 465.736 277.889 465.777 278.089 465.774C281.634 465.718 283.365 465.516 287.827 465.516C290.581 465.516 294.102 465.786 297.902 465.786C301.701 465.786 302.189 462.155 300.632 461.829C293.66 460.357 293.184 458.322 290.953 456.378C290.541 456.04 290.016 455.861 289.477 455.872Z" fill="#263238"/>
<g opacity="0.2">
<path d="M284.341 436.629H293.382L291.035 447.071H281.994L284.341 436.629Z" fill="black"/>
</g>
<path d="M273.883 340.875C273.883 340.875 341.628 347.811 340.884 381.238C340.404 402.232 336.231 422.993 328.544 442.631H315.111C315.111 442.631 315.796 421.421 315.343 387.196C315.204 376.933 293.788 373.55 272.861 372.359C263.998 371.82 255.468 368.896 248.233 363.917C240.997 358.938 235.344 352.102 231.912 344.18L230.482 340.875H273.883Z" fill="#263238"/>
<path d="M331.832 439.147C331.902 439.147 330.961 445.295 330.961 445.295H312.369L311.857 439.81L331.832 439.147Z" fill="#407BFF"/>
<path d="M259.381 340.875C259.381 340.875 308.487 356.612 309.731 376.124C312.055 412.025 293.8 442.631 293.8 442.631H280.239C280.239 442.631 285.387 427.457 287.211 394.929C289.535 354.071 210.717 394.861 225.486 340.875H259.381Z" fill="#263238"/>
<path d="M297.902 439.147C297.971 439.147 296.194 445.295 296.194 445.295H277.602L277.939 439.81L297.902 439.147Z" fill="#407BFF"/>
<path d="M294.8 375.292H219.27C219.27 373.08 220.178 370.959 221.795 369.395C223.412 367.831 225.605 366.952 227.892 366.952H286.177C288.464 366.952 290.657 367.831 292.274 369.395C293.891 370.959 294.8 373.08 294.8 375.292Z" fill="#407BFF"/>
<path d="M222.767 375.281L211.38 467.629H213.82L228.264 375.281H222.767Z" fill="#407BFF"/>
<path opacity="0.4" d="M222.767 375.281L211.38 467.629H213.82L228.264 375.281H222.767Z" fill="black"/>
<path d="M238.001 375.281L237.78 467.629H240.209L243.497 375.281H238.001Z" fill="#407BFF"/>
<path opacity="0.4" d="M238.001 375.281L237.78 467.629H240.209L243.497 375.281H238.001Z" fill="black"/>
<path d="M291.302 375.281L302.69 467.629H300.249L285.817 375.281H291.302Z" fill="#407BFF"/>
<path opacity="0.4" d="M291.302 375.281L302.69 467.629H300.249L285.817 375.281H291.302Z" fill="black"/>
<path d="M276.068 375.281L276.288 467.629H273.86L270.571 375.281H276.068Z" fill="#407BFF"/>
<path opacity="0.4" d="M276.068 375.281L276.288 467.629H273.86L270.571 375.281H276.068Z" fill="black"/>
</svg>
