<svg width="500" height="500" viewBox="0 0 500 500" fill="none" xmlns="http://www.w3.org/2000/svg">
<path d="M500 382.4H0V382.65H500V382.4Z" fill="#EBEBEB"/>
<path d="M111.66 390.79H78.54V391.04H111.66V390.79Z" fill="#EBEBEB"/>
<path d="M163.5 398H133.33V398.25H163.5V398Z" fill="#EBEBEB"/>
<path d="M95.0996 400.07H56.8496V400.32H95.0996V400.07Z" fill="#EBEBEB"/>
<path d="M449.9 399.53H434V399.78H449.9V399.53Z" fill="#EBEBEB"/>
<path d="M430.79 399.53H391.47V399.78H430.79V399.53Z" fill="#EBEBEB"/>
<path d="M280.33 390.66H250V390.91H280.33V390.66Z" fill="#EBEBEB"/>
<path d="M356.77 390.66H284.67V390.91H356.77V390.66Z" fill="#EBEBEB"/>
<path d="M237 337.8H43.91C42.3973 337.797 40.9475 337.195 39.8788 336.124C38.8102 335.053 38.21 333.603 38.21 332.09V60.66C38.2231 59.156 38.8292 57.718 39.8964 56.6582C40.9637 55.5985 42.4059 55.0026 43.91 55H237C238.514 55 239.967 55.6016 241.038 56.6724C242.108 57.7433 242.71 59.1956 242.71 60.71V332.09C242.71 333.604 242.108 335.057 241.038 336.128C239.967 337.198 238.514 337.8 237 337.8ZM43.91 55.2C42.4636 55.2026 41.0774 55.7791 40.0556 56.8027C39.0338 57.8264 38.46 59.2136 38.46 60.66V332.09C38.46 333.536 39.0338 334.924 40.0556 335.947C41.0774 336.971 42.4636 337.547 43.91 337.55H237C238.447 337.547 239.834 336.971 240.858 335.948C241.881 334.924 242.457 333.537 242.46 332.09V60.66C242.457 59.2127 241.881 57.8255 240.858 56.8021C239.834 55.7787 238.447 55.2026 237 55.2H43.91Z" fill="#EBEBEB"/>
<path d="M453.31 337.8H260.21C258.696 337.797 257.246 337.195 256.175 336.125C255.105 335.054 254.503 333.604 254.5 332.09V60.66C254.516 59.1551 255.124 57.7171 256.193 56.6576C257.262 55.5981 258.705 55.0025 260.21 55H453.31C454.812 55.0052 456.252 55.6022 457.317 56.6617C458.382 57.7212 458.987 59.1578 459 60.66V332.09C459 333.601 458.401 335.05 457.335 336.121C456.268 337.191 454.821 337.795 453.31 337.8ZM260.21 55.2C258.763 55.2026 257.375 55.7787 256.352 56.8021C255.329 57.8255 254.753 59.2127 254.75 60.66V332.09C254.753 333.537 255.329 334.924 256.352 335.948C257.375 336.971 258.763 337.547 260.21 337.55H453.31C454.757 337.547 456.145 336.971 457.168 335.948C458.191 334.924 458.767 333.537 458.77 332.09V60.66C458.767 59.2127 458.191 57.8255 457.168 56.8021C456.145 55.7787 454.757 55.2026 453.31 55.2H260.21Z" fill="#EBEBEB"/>
<path d="M200.59 77.6H85.4998C81.6256 77.6105 77.9131 79.1542 75.1736 81.8937C72.4341 84.6332 70.8904 88.3458 70.8798 92.22V111.13C70.3526 111.298 69.892 111.629 69.5635 112.074C69.2349 112.519 69.0552 113.057 69.0498 113.61V145.44C69.0536 145.994 69.2328 146.532 69.5616 146.978C69.8903 147.423 70.3518 147.753 70.8798 147.92V158.75C70.3879 158.792 69.9288 159.014 69.591 159.374C69.2531 159.734 69.0604 160.206 69.0498 160.7V177.7C69.0604 178.194 69.2531 178.666 69.591 179.026C69.9288 179.386 70.3879 179.608 70.8798 179.65V367.78C70.8904 371.654 72.4341 375.367 75.1736 378.106C77.9131 380.846 81.6256 382.389 85.4998 382.4H200.59C204.462 382.387 208.172 380.842 210.91 378.103C213.647 375.363 215.189 371.652 215.2 367.78V92.22C215.189 88.3475 213.647 84.6365 210.91 81.8973C208.172 79.158 204.462 77.6132 200.59 77.6Z" fill="#E0E0E0"/>
<path d="M90.51 382.4H205.59C213.664 382.4 220.21 375.854 220.21 367.78L220.21 92.2299C220.21 84.1555 213.664 77.6099 205.59 77.6099H90.51C82.4356 77.6099 75.89 84.1555 75.89 92.2299L75.89 367.78C75.89 375.854 82.4356 382.4 90.51 382.4Z" fill="#EBEBEB"/>
<path d="M141.54 368.44C141.538 369.728 141.918 370.988 142.632 372.059C143.346 373.131 144.362 373.967 145.552 374.462C146.741 374.956 148.05 375.086 149.314 374.836C150.577 374.586 151.738 373.967 152.65 373.057C153.561 372.147 154.182 370.987 154.434 369.724C154.686 368.461 154.558 367.151 154.065 365.961C153.573 364.771 152.739 363.754 151.668 363.038C150.597 362.322 149.338 361.94 148.05 361.94C146.325 361.94 144.671 362.624 143.45 363.843C142.23 365.062 141.543 366.715 141.54 368.44Z" fill="#E0E0E0"/>
<path d="M75.89 356.33H220.21L220.21 94.4001H75.89L75.89 356.33Z" fill="#FAFAFA"/>
<path d="M184 255.89H112.81C109.201 255.903 105.743 257.342 103.19 259.893C100.637 262.444 99.1955 265.901 99.1797 269.51V306.29C99.1955 309.899 100.637 313.356 103.19 315.907C105.743 318.458 109.201 319.897 112.81 319.91H165.07L164.68 332.78L177.88 319.91H184C187.608 319.897 191.065 318.458 193.616 315.906C196.167 313.355 197.607 309.898 197.62 306.29V269.51C197.607 265.902 196.167 262.445 193.616 259.894C191.065 257.342 187.608 255.903 184 255.89ZM111.16 271.56C111.162 270.55 111.565 269.583 112.279 268.869C112.992 268.155 113.96 267.753 114.97 267.75H131.36C132.365 267.75 133.329 268.149 134.04 268.86C134.75 269.571 135.15 270.535 135.15 271.54C135.15 272.545 134.75 273.509 134.04 274.22C133.329 274.931 132.365 275.33 131.36 275.33H115C113.996 275.33 113.033 274.934 112.32 274.228C111.606 273.522 111.2 272.564 111.19 271.56H111.16ZM180 307.15H151.63C150.665 307.1 149.756 306.682 149.09 305.981C148.425 305.281 148.054 304.351 148.054 303.385C148.054 302.419 148.425 301.489 149.09 300.789C149.756 300.088 150.665 299.67 151.63 299.62H180C180.965 299.67 181.874 300.088 182.539 300.789C183.205 301.489 183.576 302.419 183.576 303.385C183.576 304.351 183.205 305.281 182.539 305.981C181.874 306.682 180.965 307.1 180 307.15ZM180 291.24H118.81C117.845 291.19 116.936 290.772 116.27 290.071C115.605 289.371 115.234 288.441 115.234 287.475C115.234 286.509 115.605 285.579 116.27 284.879C116.936 284.178 117.845 283.76 118.81 283.71H180C180.965 283.76 181.874 284.178 182.539 284.879C183.205 285.579 183.576 286.509 183.576 287.475C183.576 288.441 183.205 289.371 182.539 290.071C181.874 290.772 180.965 291.19 180 291.24ZM180 275.33H143.77C142.765 275.33 141.801 274.931 141.09 274.22C140.379 273.509 139.98 272.545 139.98 271.54C139.98 270.535 140.379 269.571 141.09 268.86C141.801 268.149 142.765 267.75 143.77 267.75H180C181.005 267.75 181.969 268.149 182.68 268.86C183.39 269.571 183.79 270.535 183.79 271.54C183.79 272.545 183.39 273.509 182.68 274.22C181.969 274.931 181.005 275.33 180 275.33Z" fill="#E6E6E6"/>
<path d="M147.87 128C137.868 128.003 128.216 131.682 120.749 138.337C113.283 144.992 108.522 154.158 107.373 164.094C106.223 174.029 108.765 184.041 114.516 192.225C120.266 200.408 128.823 206.193 138.56 208.48L147.87 220.33L157.18 208.48C166.917 206.193 175.474 200.408 181.224 192.225C186.974 184.041 189.516 174.029 188.366 164.094C187.217 154.158 182.457 144.992 174.99 138.337C167.523 131.682 157.871 128.003 147.87 128ZM147.87 185.77C144.507 185.77 141.221 184.773 138.425 182.905C135.629 181.037 133.45 178.382 132.164 175.276C130.877 172.169 130.54 168.751 131.196 165.453C131.852 162.156 133.471 159.127 135.849 156.749C138.226 154.372 141.255 152.753 144.553 152.097C147.851 151.441 151.269 151.777 154.375 153.064C157.482 154.351 160.137 156.53 162.005 159.325C163.873 162.121 164.87 165.408 164.87 168.77C164.87 173.279 163.079 177.603 159.89 180.791C156.702 183.979 152.378 185.77 147.87 185.77Z" fill="#E6E6E6"/>
<path d="M164.61 85.33C164.608 84.8756 164.471 84.4319 164.217 84.055C163.963 83.6781 163.603 83.3848 163.183 83.2123C162.763 83.0397 162.3 82.9956 161.855 83.0855C161.409 83.1753 161.001 83.3952 160.68 83.7172C160.359 84.0393 160.141 84.4491 160.053 84.895C159.965 85.3409 160.011 85.8028 160.186 86.2225C160.36 86.6422 160.655 87.0008 161.033 87.2531C161.411 87.5054 161.855 87.64 162.31 87.64C162.613 87.64 162.913 87.5802 163.192 87.464C163.472 87.3478 163.726 87.1775 163.94 86.9629C164.153 86.7482 164.323 86.4935 164.438 86.2133C164.553 85.9331 164.611 85.6329 164.61 85.33Z" fill="#E0E0E0"/>
<path d="M154.36 83H135.25C134.641 83.0026 134.058 83.2458 133.627 83.6766C133.196 84.1073 132.953 84.6908 132.95 85.3C132.95 85.9109 133.192 86.497 133.623 86.9299C134.054 87.3628 134.639 87.6074 135.25 87.61H154.36C154.971 87.6074 155.556 87.3628 155.987 86.9299C156.418 86.497 156.66 85.9109 156.66 85.3C156.658 84.6908 156.414 84.1073 155.984 83.6766C155.553 83.2458 154.969 83.0026 154.36 83Z" fill="#E0E0E0"/>
<path d="M285.59 382.39H430.92C437.547 382.39 442.92 377.017 442.92 370.39L442.92 87.8199C442.92 81.1925 437.547 75.8199 430.92 75.8199H285.59C278.963 75.8199 273.59 81.1925 273.59 87.8199V370.39C273.59 377.017 278.963 382.39 285.59 382.39Z" fill="#E0E0E0"/>
<path d="M282.52 382.39H427.85C434.477 382.39 439.85 377.017 439.85 370.39L439.85 87.8199C439.85 81.1925 434.477 75.8199 427.85 75.8199H282.52C275.892 75.8199 270.52 81.1925 270.52 87.8199V370.39C270.52 377.017 275.892 382.39 282.52 382.39Z" fill="#EBEBEB"/>
<path d="M431.85 370.4V94.4C431.85 92.1909 430.059 90.4 427.85 90.4L282.52 90.4C280.31 90.4 278.52 92.1909 278.52 94.4V370.4C278.52 372.609 280.31 374.4 282.52 374.4H427.85C430.059 374.4 431.85 372.609 431.85 370.4Z" fill="#FAFAFA"/>
<path d="M381.76 242.26C378.302 242.256 374.89 243.05 371.791 244.582C368.691 246.114 365.987 248.341 363.89 251.09L342.83 238.45C344.168 235.518 344.86 232.333 344.86 229.11C344.86 225.887 344.168 222.702 342.83 219.77L363.89 207.13C367.126 211.364 371.761 214.31 376.969 215.444C382.176 216.577 387.616 215.824 392.32 213.318C397.023 210.813 400.683 206.718 402.647 201.764C404.611 196.81 404.752 191.319 403.043 186.271C401.335 181.223 397.889 176.947 393.319 174.204C388.75 171.461 383.355 170.431 378.097 171.297C372.839 172.163 368.059 174.869 364.611 178.932C361.162 182.995 359.269 188.151 359.27 193.48C359.252 196.701 359.934 199.888 361.27 202.82L340.2 215.46C337.345 211.722 333.39 208.973 328.892 207.6C324.393 206.227 319.577 206.298 315.121 207.805C310.666 209.312 306.794 212.178 304.053 216C301.311 219.821 299.836 224.406 299.836 229.11C299.836 233.814 301.311 238.399 304.053 242.22C306.794 246.042 310.666 248.908 315.121 250.415C319.577 251.922 324.393 251.993 328.892 250.62C333.39 249.247 337.345 246.498 340.2 242.76L361.27 255.4C359.252 259.818 358.719 264.771 359.751 269.517C360.783 274.263 363.325 278.547 366.995 281.728C370.666 284.909 375.268 286.816 380.112 287.163C384.957 287.509 389.784 286.278 393.87 283.652C397.956 281.027 401.082 277.148 402.78 272.598C404.477 268.047 404.656 263.069 403.288 258.409C401.92 253.748 399.079 249.656 395.191 246.745C391.303 243.834 386.577 242.26 381.72 242.26H381.76Z" fill="#E6E6E6"/>
<path d="M355.18 87.41C357.29 87.41 359 85.6997 359 83.59C359 81.4803 357.29 79.77 355.18 79.77C353.071 79.77 351.36 81.4803 351.36 83.59C351.36 85.6997 353.071 87.41 355.18 87.41Z" fill="white"/>
<path d="M250 427.56C357.083 427.56 443.89 422.492 443.89 416.24C443.89 409.988 357.083 404.92 250 404.92C142.918 404.92 56.1104 409.988 56.1104 416.24C56.1104 422.492 142.918 427.56 250 427.56Z" fill="#F5F5F5"/>
<path d="M323.65 314.68C322.16 314.671 320.691 314.329 319.35 313.68L146.61 231.35C144.919 230.531 143.493 229.253 142.496 227.661C141.498 226.069 140.969 224.229 140.969 222.35C140.969 220.471 141.498 218.631 142.496 217.039C143.493 215.447 144.919 214.169 146.61 213.35L319.35 131C321.712 130.019 324.361 129.98 326.751 130.892C329.141 131.804 331.091 133.598 332.199 135.904C333.307 138.209 333.489 140.852 332.708 143.288C331.927 145.724 330.242 147.768 328 149L174.15 222.33L328 295.65C330.033 296.635 331.673 298.279 332.653 300.315C333.632 302.351 333.893 304.659 333.393 306.862C332.894 309.066 331.662 311.035 329.9 312.449C328.138 313.863 325.949 314.639 323.69 314.65L323.65 314.68Z" fill="#407BFF"/>
<path d="M376.43 191.09L375.71 190.39C378.657 187.369 381.334 184.097 383.71 180.61L384.54 181.17C382.129 184.706 379.416 188.025 376.43 191.09Z" fill="#407BFF"/>
<path d="M323.66 209.98C362.32 209.98 393.66 178.64 393.66 139.98C393.66 101.32 362.32 69.98 323.66 69.98C285 69.98 253.66 101.32 253.66 139.98C253.66 178.64 285 209.98 323.66 209.98Z" fill="#407BFF"/>
<path d="M323.66 194.8C353.936 194.8 378.48 170.256 378.48 139.98C378.48 109.704 353.936 85.16 323.66 85.16C293.384 85.16 268.84 109.704 268.84 139.98C268.84 170.256 293.384 194.8 323.66 194.8Z" fill="white"/>
<mask id="mask0_159_404" style="mask-type:luminance" maskUnits="userSpaceOnUse" x="268" y="85" width="111" height="110">
<path d="M323.66 194.8C353.936 194.8 378.48 170.256 378.48 139.98C378.48 109.704 353.936 85.16 323.66 85.16C293.384 85.16 268.84 109.704 268.84 139.98C268.84 170.256 293.384 194.8 323.66 194.8Z" fill="white"/>
</mask>
<g mask="url(#mask0_159_404)">
<path d="M325.129 170.73C325.129 170.73 344.799 174.83 355.499 173.17C366.199 171.51 364.959 157.17 356.499 150C348.039 142.83 349.999 144.5 351.999 137C353.999 129.5 349.499 123.5 340.999 123.17C332.499 122.84 340.719 112.17 331.999 100.25C323.279 88.33 307.739 97.33 306.619 102.67C301.739 102.83 296.619 110.78 300.269 117.97C303.919 125.16 299.269 127.04 296.409 135.69C293.549 144.34 304.979 146 302.409 151.83C299.839 157.66 299.629 177 325.129 170.73Z" fill="#263238"/>
<path d="M306 155.91C305.82 158.91 305.47 161.72 305.07 164.6C304.67 167.48 304.13 170.29 303.51 173.12C302.89 175.95 302.21 178.77 301.32 181.55C300.479 184.368 299.477 187.136 298.32 189.84L297.4 191.84C297.27 192.15 297.03 192.6 296.83 192.98C296.63 193.36 296.4 193.72 296.18 194.09C295.329 195.426 294.38 196.696 293.34 197.89C291.402 200.114 289.318 202.205 287.1 204.15C282.805 207.933 278.236 211.393 273.43 214.5L270.67 211C272.62 209.11 274.61 207.15 276.54 205.2C278.47 203.25 280.37 201.27 282.17 199.2C283.942 197.249 285.611 195.206 287.17 193.08C287.903 192.102 288.572 191.076 289.17 190.01C289.29 189.76 289.43 189.51 289.53 189.28C289.63 189.05 289.72 188.87 289.85 188.53L290.54 186.7C292.317 181.678 293.702 176.526 294.68 171.29C295.21 168.65 295.58 165.97 295.98 163.29C296.38 160.61 296.67 157.87 296.91 155.29L306 155.91Z" fill="#FFB573"/>
<path d="M299.799 145C296.109 145.94 293.529 161.13 293.529 161.13L303.699 168C303.699 168 313.449 152.68 310.609 148.62C307.659 144.43 305.189 143.62 299.799 145Z" fill="#407BFF"/>
<path opacity="0.2" d="M299.799 145C296.109 145.94 293.529 161.13 293.529 161.13L303.699 168C303.699 168 313.449 152.68 310.609 148.62C307.659 144.43 305.189 143.62 299.799 145Z" fill="white"/>
<path opacity="0.2" d="M300.14 148.39L297.3 163.7L303.02 167.57L300.14 148.39Z" fill="black"/>
<path d="M299.8 145C299.8 145 295.54 146.5 304.08 199.05H340.46C339.85 184.24 339.83 175.12 346.9 144.74C341.808 143.701 336.648 143.032 331.46 142.74C325.96 142.35 320.44 142.35 314.94 142.74C307.85 143.35 299.8 145 299.8 145Z" fill="#407BFF"/>
<path opacity="0.2" d="M299.8 145C299.8 145 295.54 146.5 304.08 199.05H340.46C339.85 184.24 339.83 175.12 346.9 144.74C341.808 143.701 336.648 143.032 331.46 142.74C325.96 142.35 320.44 142.35 314.94 142.74C307.85 143.35 299.8 145 299.8 145Z" fill="white"/>
<path d="M329.819 124.1C328.819 129.42 327.739 139.16 331.459 142.7C331.459 142.7 329.999 148.09 320.129 148.09C309.269 148.09 314.939 142.7 314.939 142.7C320.869 141.29 320.709 136.89 319.679 132.76L329.819 124.1Z" fill="#FFB573"/>
<path d="M331.449 142.71C325.953 142.31 320.435 142.31 314.939 142.71L313.859 142.81C311.639 145.4 314.369 148.68 316.679 151.01C316.679 151.01 329.859 149.01 333.629 142.85C332.909 142.79 332.179 142.74 331.449 142.71Z" fill="#FFB573"/>
<path opacity="0.2" d="M325.689 127.64L319.689 132.76C319.941 133.721 320.111 134.701 320.199 135.69C322.929 135.69 325.309 133.78 326.269 130.63C326.609 129.5 325.879 128.19 325.689 127.64Z" fill="black"/>
<path d="M330.12 110C332 118.69 332.99 122.32 329.91 127.92C325.28 136.34 314.2 136.75 309.76 128.8C305.76 121.65 303.36 108.64 310.76 102.89C312.385 101.614 314.31 100.774 316.351 100.452C318.393 100.129 320.483 100.333 322.423 101.046C324.362 101.758 326.088 102.955 327.435 104.522C328.782 106.089 329.706 107.975 330.12 110Z" fill="#FFB573"/>
<path d="M317.139 116.07C317.339 116.77 317.139 117.44 316.679 117.57C316.219 117.7 315.679 117.23 315.499 116.57C315.319 115.91 315.499 115.21 315.969 115.08C316.439 114.95 316.999 115.38 317.139 116.07Z" fill="#263238"/>
<path d="M309.28 118.29C309.48 118.98 309.28 119.65 308.82 119.78C308.36 119.91 307.82 119.45 307.64 118.78C307.46 118.11 307.64 117.42 308.11 117.29C308.58 117.16 309.09 117.59 309.28 118.29Z" fill="#263238"/>
<path d="M308.32 117.24H306.51C306.51 117.24 307.74 118.3 308.32 117.24Z" fill="#263238"/>
<path d="M312.06 118.86C311.886 120.618 311.472 122.344 310.83 123.99C311.256 124.145 311.71 124.204 312.161 124.164C312.611 124.125 313.048 123.987 313.44 123.76L312.06 118.86Z" fill="#ED893E"/>
<path d="M317.999 125.42C317.676 125.565 317.341 125.686 316.999 125.78C316.945 125.796 316.886 125.79 316.837 125.762C316.787 125.735 316.75 125.689 316.734 125.635C316.718 125.581 316.725 125.522 316.752 125.472C316.779 125.423 316.825 125.386 316.879 125.37C317.751 125.145 318.557 124.719 319.233 124.125C319.909 123.53 320.435 122.785 320.769 121.95C320.777 121.924 320.79 121.9 320.808 121.879C320.825 121.858 320.847 121.841 320.871 121.829C320.896 121.817 320.922 121.81 320.949 121.808C320.976 121.807 321.004 121.811 321.029 121.82C321.056 121.827 321.081 121.839 321.103 121.856C321.125 121.873 321.143 121.895 321.157 121.919C321.17 121.944 321.178 121.971 321.18 121.998C321.182 122.026 321.178 122.054 321.169 122.08C320.887 122.818 320.461 123.493 319.917 124.066C319.373 124.639 318.721 125.099 317.999 125.42Z" fill="#263238"/>
<path d="M308.46 104C306.56 106.17 327.24 117.3 331.46 115.3C335.68 113.3 331.88 102.16 326.55 99.7499C321.22 97.3399 314.21 97.4199 308.46 104Z" fill="#263238"/>
<path d="M334.639 117.15C334.493 118.862 333.677 120.446 332.369 121.56C330.619 123.02 328.809 121.67 328.519 119.56C328.259 117.63 328.849 114.56 330.979 113.92C331.446 113.792 331.938 113.783 332.409 113.892C332.881 114.002 333.318 114.227 333.681 114.547C334.044 114.868 334.321 115.273 334.489 115.728C334.656 116.182 334.708 116.671 334.639 117.15Z" fill="#FFB573"/>
<path d="M319.849 113.58C319.768 113.618 319.678 113.629 319.59 113.613C319.502 113.597 319.422 113.554 319.359 113.49C318.029 112.04 315.519 112.35 315.499 112.35C315.444 112.36 315.386 112.359 315.331 112.347C315.275 112.335 315.223 112.312 315.177 112.279C315.13 112.247 315.09 112.205 315.06 112.157C315.03 112.109 315.009 112.056 314.999 112C314.992 111.945 314.997 111.889 315.011 111.835C315.026 111.781 315.052 111.731 315.086 111.688C315.12 111.644 315.163 111.607 315.212 111.58C315.261 111.553 315.314 111.536 315.369 111.53C315.489 111.53 318.369 111.17 319.959 112.93C320.038 113.01 320.081 113.118 320.081 113.23C320.081 113.342 320.038 113.45 319.959 113.53C319.926 113.553 319.889 113.57 319.849 113.58Z" fill="#263238"/>
<path d="M305.899 115.32C305.834 115.354 305.762 115.372 305.689 115.372C305.616 115.372 305.544 115.354 305.479 115.32C305.434 115.288 305.395 115.247 305.365 115.2C305.335 115.153 305.315 115.101 305.306 115.046C305.296 114.991 305.298 114.935 305.311 114.881C305.323 114.826 305.347 114.775 305.379 114.73C305.746 114.166 306.245 113.699 306.831 113.37C307.418 113.041 308.076 112.859 308.749 112.84C308.805 112.84 308.861 112.851 308.912 112.873C308.964 112.895 309.011 112.926 309.05 112.966C309.089 113.007 309.12 113.054 309.14 113.106C309.161 113.158 309.171 113.214 309.169 113.27C309.168 113.326 309.155 113.381 309.133 113.432C309.11 113.483 309.077 113.53 309.036 113.568C308.995 113.606 308.946 113.636 308.894 113.655C308.841 113.674 308.785 113.683 308.729 113.68C308.197 113.707 307.678 113.86 307.216 114.126C306.753 114.392 306.36 114.763 306.069 115.21C306.023 115.261 305.965 115.299 305.899 115.32Z" fill="#263238"/>
<path d="M350.83 154.31C352.935 159.429 354.734 164.668 356.22 170C357.817 175.416 358.901 180.971 359.46 186.59C359.52 187.32 359.54 188.06 359.58 188.8V189.35C359.58 189.54 359.58 189.69 359.58 189.98V190.75L359.51 191.43C359.316 192.99 358.981 194.53 358.51 196.03C357.663 198.722 356.661 201.363 355.51 203.94C353.273 208.945 350.742 213.814 347.93 218.52L343.83 216.58C345.58 211.58 347.34 206.46 348.91 201.45C349.68 198.95 350.41 196.45 350.91 194.02C351.161 192.931 351.325 191.825 351.4 190.71V190.38V190.14C351.4 190.14 351.4 189.91 351.4 189.76L351.35 189.31C351.28 188.7 351.23 188.11 351.14 187.49C350.321 182.429 349.127 177.435 347.57 172.55C346.03 167.55 344.26 162.55 342.43 157.74L350.83 154.31Z" fill="#FFB573"/>
<path d="M346.9 144.74C350.55 145.84 354.9 158.39 354.9 158.39L340.79 168.5C340.79 168.5 335.63 158.03 337.16 153.32C338.76 148.41 342.74 143.47 346.9 144.74Z" fill="#407BFF"/>
<path opacity="0.2" d="M346.9 144.74C350.55 145.84 354.9 158.39 354.9 158.39L340.79 168.5C340.79 168.5 335.63 158.03 337.16 153.32C338.76 148.41 342.74 143.47 346.9 144.74Z" fill="white"/>
<path d="M316.179 115H314.369C314.369 115 315.599 116.08 316.179 115Z" fill="#263238"/>
</g>
<path d="M101.69 169.15L101.01 168.41C105.963 163.82 111.521 159.931 117.53 156.85L117.99 157.74C112.06 160.779 106.575 164.618 101.69 169.15Z" fill="#407BFF"/>
<path d="M93.9997 177.44L93.2197 176.82C94.4497 175.26 95.7597 173.73 97.1197 172.28L97.8497 172.96C96.5297 174.39 95.2397 175.9 93.9997 177.44Z" fill="#407BFF"/>
<path d="M150.92 292.33C189.58 292.33 220.92 260.99 220.92 222.33C220.92 183.67 189.58 152.33 150.92 152.33C112.26 152.33 80.9199 183.67 80.9199 222.33C80.9199 260.99 112.26 292.33 150.92 292.33Z" fill="#407BFF"/>
<path d="M150.92 277.15C181.196 277.15 205.74 252.606 205.74 222.33C205.74 192.054 181.196 167.51 150.92 167.51C120.643 167.51 96.0996 192.054 96.0996 222.33C96.0996 252.606 120.643 277.15 150.92 277.15Z" fill="white"/>
<mask id="mask1_159_404" style="mask-type:luminance" maskUnits="userSpaceOnUse" x="96" y="167" width="110" height="111">
<path d="M150.92 277.15C181.196 277.15 205.74 252.606 205.74 222.33C205.74 192.054 181.196 167.51 150.92 167.51C120.643 167.51 96.0996 192.054 96.0996 222.33C96.0996 252.606 120.643 277.15 150.92 277.15Z" fill="white"/>
</mask>
<g mask="url(#mask1_159_404)">
<path d="M175.639 237.19C178.219 243.19 180.889 249.19 183.579 255.19C184.912 258.183 186.282 261.15 187.689 264.09C189.096 267.03 190.529 269.923 191.989 272.77C192.739 274.16 193.469 275.6 194.259 276.92L194.849 277.92L195.139 278.42C195.108 278.381 195.071 278.347 195.029 278.32C194.899 278.24 195.029 278.39 195.289 278.57C196.271 279.101 197.336 279.459 198.439 279.63C199.864 279.898 201.303 280.082 202.749 280.18C205.749 280.39 208.979 280.39 212.189 280.29L217.039 280.09L221.869 279.77L223.119 285.59C216.516 287.797 209.663 289.167 202.719 289.67C200.847 289.793 198.969 289.776 197.099 289.62C194.887 289.467 192.715 288.953 190.669 288.1C189.253 287.483 187.98 286.581 186.929 285.45C186.613 285.109 186.322 284.744 186.059 284.36L185.689 283.81L184.959 282.7C183.959 281.22 183.089 279.7 182.179 278.26C178.699 272.32 175.609 266.32 172.699 260.26C169.789 254.2 167.089 248.09 164.539 241.81L175.639 237.19Z" fill="#7F3E3B"/>
<path d="M161.429 236.37C158.999 243.46 173.259 264.37 173.259 264.37L186.929 256.8C184.605 250.296 181.862 243.95 178.719 237.8C173.899 228.72 164.089 228.59 161.429 236.37Z" fill="#407BFF"/>
<path opacity="0.5" d="M161.429 236.37C158.999 243.46 173.259 264.37 173.259 264.37L186.929 256.8C184.605 250.296 181.862 243.95 178.719 237.8C173.899 228.72 164.089 228.59 161.429 236.37Z" fill="black"/>
<path opacity="0.2" d="M161.219 237.27C164.279 235.8 167.799 237.03 171.509 242.88C175.219 248.73 178.379 258.53 178.719 261.33L173.259 264.33C173.259 264.33 160.089 245.06 161.219 237.27Z" fill="black"/>
<path d="M170.649 230.94C170.649 230.94 180.839 254.88 173.499 299.46H131.099C130.579 292.96 133.569 261.2 126.229 230.54C130.895 229.634 135.615 229.032 140.359 228.74C146.355 228.395 152.364 228.395 158.359 228.74C162.506 229.16 166.615 229.896 170.649 230.94Z" fill="#407BFF"/>
<path opacity="0.5" d="M170.649 230.94C170.649 230.94 180.839 254.88 173.499 299.46H131.099C130.579 292.96 133.569 261.2 126.229 230.54C130.895 229.634 135.615 229.032 140.359 228.74C146.355 228.395 152.364 228.395 158.359 228.74C162.506 229.16 166.615 229.896 170.649 230.94Z" fill="black"/>
<path d="M158.559 261.57L149.449 251.82L156.099 242.04L165.199 251.79L158.559 261.57Z" fill="white"/>
<path opacity="0.2" d="M135.699 238.11C136.579 243.11 135.409 255.23 131.079 269.19C130.745 257.224 129.353 245.311 126.919 233.59V233.53C129.699 233.24 134.859 233.38 135.699 238.11Z" fill="black"/>
<path d="M141.439 208.45C142.779 214.25 144.279 224.87 140.359 228.74C140.359 228.74 142.839 234.59 153.609 234.61C162.249 234.61 158.379 228.74 158.379 228.74C151.859 227.2 151.859 222.4 152.829 217.9L141.439 208.45Z" fill="#7F3E3B"/>
<path opacity="0.2" d="M146.079 212.3L152.829 217.89C152.583 218.941 152.432 220.012 152.379 221.09C149.899 220.73 146.379 218.02 146.059 215.43C145.873 214.394 145.88 213.333 146.079 212.3Z" fill="black"/>
<path d="M158.349 191.2C161.949 193.53 162.469 204.74 157.199 206.34C151.929 207.94 151.519 186.79 158.349 191.2Z" fill="#263238"/>
<path d="M138.899 202.37C141.319 209.88 142.349 214.37 147.219 217.45C148.795 218.463 150.619 219.025 152.492 219.075C154.365 219.125 156.216 218.661 157.844 217.734C159.472 216.806 160.815 215.451 161.727 213.814C162.64 212.178 163.086 210.322 163.019 208.45C162.919 201.25 159.019 190.18 150.699 188.79C148.909 188.44 147.058 188.568 145.333 189.162C143.608 189.755 142.07 190.792 140.874 192.169C139.677 193.546 138.865 195.214 138.518 197.005C138.172 198.796 138.303 200.646 138.899 202.37Z" fill="#7F3E3B"/>
<path d="M141.63 194.63C145.63 200.05 145.63 208.69 142.51 209.63C139.39 210.57 130.72 200.63 130.27 195.29C129.91 191 132.76 191 132.76 191C132.76 191 128.16 188.33 133.38 185.12C139.27 181.51 153.85 181.86 147.29 176.78C152.04 175.2 153.88 178.23 153.58 180.07C157.08 179 156.85 175.2 156.85 175.2C156.85 175.2 166.15 180.4 161.96 186.46C157.77 192.52 150.06 194.47 141.63 194.63Z" fill="#263238"/>
<path d="M137.579 211.52C139.022 212.914 140.943 213.705 142.949 213.73C145.599 213.73 146.129 211.23 144.729 209.14C143.479 207.25 140.589 204.99 138.259 206C135.929 207.01 135.829 209.79 137.579 211.52Z" fill="#7F3E3B"/>
<path d="M151.08 202C151.24 202.62 151.7 203.05 152.08 203C152.46 202.95 152.69 202.34 152.53 201.72C152.37 201.1 151.91 200.72 151.53 200.72C151.15 200.72 150.93 201.33 151.08 202Z" fill="#263238"/>
<path d="M158.139 200.41C158.299 201.03 158.759 201.46 159.139 201.41C159.519 201.36 159.749 200.74 159.589 200.13C159.429 199.52 158.979 199.08 158.589 199.13C158.199 199.18 157.999 199.79 158.139 200.41Z" fill="#263238"/>
<path d="M155.999 201.21C157.233 202.946 158.692 204.509 160.339 205.86C159.98 206.257 159.54 206.57 159.047 206.779C158.555 206.988 158.023 207.087 157.489 207.07L155.999 201.21Z" fill="#630F0F"/>
<path d="M154.769 209.32C153.47 209.336 152.209 208.881 151.219 208.04C151.201 208.024 151.187 208.004 151.177 207.982C151.167 207.96 151.161 207.936 151.16 207.912C151.159 207.888 151.163 207.864 151.172 207.841C151.18 207.818 151.193 207.798 151.209 207.78C151.226 207.762 151.245 207.748 151.267 207.738C151.289 207.728 151.313 207.722 151.337 207.721C151.361 207.72 151.385 207.724 151.408 207.732C151.431 207.741 151.451 207.754 151.469 207.77C152.1 208.271 152.837 208.621 153.624 208.794C154.41 208.968 155.226 208.959 156.009 208.77C156.033 208.764 156.057 208.763 156.081 208.767C156.106 208.771 156.129 208.78 156.149 208.793C156.17 208.806 156.187 208.823 156.201 208.843C156.215 208.863 156.224 208.886 156.229 208.91C156.239 208.959 156.23 209.009 156.204 209.052C156.178 209.095 156.137 209.126 156.089 209.14C155.657 209.246 155.214 209.307 154.769 209.32Z" fill="#263238"/>
<path d="M148.29 200.17C148.24 200.179 148.189 200.179 148.14 200.17C148.094 200.151 148.053 200.124 148.018 200.089C147.983 200.054 147.955 200.013 147.937 199.967C147.918 199.921 147.909 199.873 147.909 199.823C147.91 199.774 147.92 199.725 147.94 199.68C148.163 199.132 148.518 198.647 148.973 198.268C149.428 197.89 149.97 197.629 150.55 197.51C150.649 197.496 150.75 197.521 150.831 197.581C150.911 197.641 150.965 197.731 150.98 197.83C150.987 197.879 150.984 197.928 150.972 197.976C150.959 198.023 150.938 198.068 150.908 198.107C150.878 198.146 150.841 198.179 150.798 198.204C150.756 198.228 150.709 198.244 150.66 198.25C150.214 198.358 149.801 198.57 149.453 198.869C149.105 199.168 148.833 199.546 148.66 199.97C148.627 200.038 148.573 200.094 148.507 200.13C148.441 200.166 148.365 200.18 148.29 200.17Z" fill="#263238"/>
<path d="M160.529 197.34C160.474 197.34 160.419 197.327 160.368 197.303C160.318 197.279 160.274 197.244 160.239 197.2C159.94 196.824 159.56 196.521 159.127 196.313C158.694 196.105 158.22 195.998 157.739 196C157.69 196.005 157.64 196.001 157.592 195.987C157.545 195.972 157.5 195.949 157.462 195.917C157.424 195.885 157.392 195.846 157.37 195.802C157.347 195.758 157.333 195.71 157.329 195.66C157.324 195.611 157.328 195.561 157.343 195.513C157.357 195.465 157.381 195.421 157.412 195.383C157.444 195.344 157.483 195.313 157.527 195.29C157.572 195.267 157.62 195.254 157.669 195.25C158.272 195.237 158.87 195.363 159.416 195.618C159.962 195.873 160.442 196.25 160.819 196.72C160.865 196.775 160.893 196.842 160.902 196.913C160.911 196.984 160.899 197.056 160.869 197.121C160.839 197.186 160.791 197.241 160.731 197.279C160.671 197.318 160.601 197.339 160.529 197.34Z" fill="#263238"/>
<path d="M134.599 242L132.999 245.51C132.449 246.72 131.919 247.94 131.399 249.17C130.349 251.63 129.399 254.11 128.399 256.59C127.399 259.07 126.609 261.59 125.899 264.06C125.519 265.31 125.209 266.55 124.899 267.79L124.489 269.65L124.429 269.88V270C124.429 270 124.429 270 124.429 270.11C124.52 270.837 124.751 271.54 125.109 272.18C125.63 273.187 126.232 274.15 126.909 275.06C128.445 277.122 130.115 279.079 131.909 280.92C135.579 284.74 139.629 288.52 143.689 292.09L140.259 297C135.157 294.263 130.311 291.074 125.779 287.47C123.41 285.595 121.19 283.539 119.139 281.32C118.035 280.085 117.032 278.765 116.139 277.37C114.989 275.658 114.194 273.734 113.799 271.71C113.679 271.05 113.619 270.381 113.619 269.71C113.62 269.349 113.64 268.989 113.679 268.63V268.22V267.94L113.979 265.68C114.239 264.2 114.469 262.68 114.819 261.26C115.486 258.353 116.259 255.507 117.139 252.72C118.029 249.93 119.039 247.2 120.139 244.51C120.699 243.17 121.279 241.83 121.879 240.51C122.479 239.19 123.099 237.91 123.879 236.51L134.599 242Z" fill="#7F3E3B"/>
<path d="M126.229 230.54C118.759 231.63 111.069 259.1 111.069 259.1L129.069 265.96C129.069 265.96 133.609 254.15 136.709 244.96C139.999 235.36 134.229 229.37 126.229 230.54Z" fill="#407BFF"/>
<path opacity="0.5" d="M126.229 230.54C118.759 231.63 111.069 259.1 111.069 259.1L129.069 265.96C129.069 265.96 133.609 254.15 136.709 244.96C139.999 235.36 134.229 229.37 126.229 230.54Z" fill="black"/>
</g>
<path d="M323.66 374.67C362.32 374.67 393.66 343.33 393.66 304.67C393.66 266.01 362.32 234.67 323.66 234.67C285 234.67 253.66 266.01 253.66 304.67C253.66 343.33 285 374.67 323.66 374.67Z" fill="#407BFF"/>
<path d="M323.66 359.49C353.936 359.49 378.48 334.946 378.48 304.67C378.48 274.394 353.936 249.85 323.66 249.85C293.384 249.85 268.84 274.394 268.84 304.67C268.84 334.946 293.384 359.49 323.66 359.49Z" fill="white"/>
<mask id="mask2_159_404" style="mask-type:luminance" maskUnits="userSpaceOnUse" x="268" y="249" width="111" height="111">
<path d="M323.66 359.49C353.936 359.49 378.48 334.946 378.48 304.67C378.48 274.394 353.936 249.85 323.66 249.85C293.384 249.85 268.84 274.394 268.84 304.67C268.84 334.946 293.384 359.49 323.66 359.49Z" fill="white"/>
</mask>
<g mask="url(#mask2_159_404)">
<path d="M304.33 322.86C304.16 325.86 303.82 328.53 303.43 331.35C303.04 334.17 302.52 336.9 301.93 339.66C300.774 345.253 299.1 350.727 296.93 356.01L296.03 358.01L295.81 358.51L295.7 358.76L295.54 359.08C295.229 359.71 294.839 360.297 294.38 360.83C293.83 361.455 293.169 361.974 292.43 362.36C291.712 362.744 290.929 362.992 290.12 363.09C288.887 363.227 287.639 363.097 286.46 362.71C284.81 362.148 283.253 361.342 281.84 360.32C280.615 359.448 279.442 358.503 278.33 357.49C274.194 353.626 270.474 349.339 267.23 344.7L270.68 341.79C272.6 343.59 274.61 345.42 276.62 347.15C278.579 348.884 280.625 350.516 282.75 352.04C283.74 352.768 284.772 353.435 285.84 354.04C286.689 354.557 287.609 354.948 288.57 355.2C288.9 355.26 289.11 355.2 288.96 355.2C288.675 355.227 288.407 355.35 288.2 355.55C288.13 355.61 288.12 355.62 288.13 355.55L288.44 354.73L289.12 352.95C290.82 348.024 292.157 342.981 293.12 337.86C293.64 335.29 294 332.67 294.39 330.06C294.78 327.45 295.06 324.77 295.29 322.29L304.33 322.86Z" fill="#FF8B7B"/>
<path d="M298.14 312C294.47 312.93 291.9 328 291.9 328L302 334.92C302 334.92 311.69 319.69 308.87 315.65C305.94 311.45 303.49 310.65 298.14 312Z" fill="#263238"/>
<path opacity="0.2" d="M298.47 315.38L295.65 330.6L301.33 334.45L298.47 315.38Z" fill="black"/>
<path d="M270.781 341.21L266.001 333.62L263.271 342.25C263.271 342.25 267.221 346.38 270.781 345.4V341.21Z" fill="#FF8B7B"/>
<path d="M298.141 312C298.141 312 293.901 313.49 302.391 365.72H338.541C337.941 351.01 337.921 341.94 344.951 311.72C339.89 310.68 334.759 310.012 329.601 309.72C324.134 309.33 318.647 309.33 313.181 309.72C306.131 310.37 298.141 312 298.141 312Z" fill="#263238"/>
<path d="M306.15 273.48C319.09 252.77 357.42 269.75 337.41 290.14C310.66 317.39 306.15 273.48 306.15 273.48Z" fill="#263238"/>
<path d="M314.71 302.79C313.371 302.823 312.05 302.476 310.9 301.79C302.9 296.79 306.9 275.73 307.06 274.79C307.082 274.694 307.14 274.61 307.222 274.556C307.304 274.502 307.404 274.482 307.5 274.5C307.548 274.51 307.594 274.529 307.635 274.556C307.675 274.583 307.71 274.618 307.737 274.659C307.764 274.7 307.783 274.746 307.792 274.794C307.801 274.843 307.8 274.892 307.79 274.94C307.79 275.15 303.69 296.42 311.29 301.11C314.97 303.38 320.86 301.42 328.81 295.29C328.849 295.259 328.894 295.236 328.942 295.222C328.99 295.209 329.041 295.205 329.09 295.212C329.14 295.218 329.187 295.235 329.23 295.26C329.273 295.286 329.311 295.32 329.34 295.36C329.398 295.439 329.422 295.537 329.409 295.634C329.396 295.731 329.346 295.819 329.27 295.88C323.33 300.49 318.45 302.79 314.71 302.79Z" fill="#263238"/>
<path d="M330.42 267.63C334.42 255.54 355.85 259.4 348.31 272.27C340.33 285.89 330.42 267.63 330.42 267.63Z" fill="#263238"/>
<path d="M328 291.25C327 296.53 325.93 306.25 329.63 309.73C329.63 309.73 328.18 315.09 318.37 315.09C307.58 315.09 313.21 309.73 313.21 309.73C319.1 308.32 318.95 303.95 317.93 299.85L328 291.25Z" fill="#FF8B7B"/>
<path d="M317.59 315.08C319.146 316.634 320.359 318.498 321.15 320.55C323.04 319.88 332.79 314.55 332.98 309.55C331.682 309.203 330.367 308.926 329.04 308.72C325.78 311.715 321.856 313.895 317.59 315.08Z" fill="#407BFF"/>
<path d="M317.59 315.08C316.145 316.72 314.949 318.563 314.04 320.55C312.246 319.514 310.897 317.852 310.251 315.884C309.606 313.915 309.708 311.778 310.54 309.88C311.996 309.413 313.511 309.154 315.04 309.11C315.04 309.11 310.2 312.91 317.59 315.08Z" fill="#407BFF"/>
<path opacity="0.2" d="M323.86 294.76L317.86 299.85C318.117 300.803 318.287 301.777 318.37 302.76C320.62 302.43 323.71 299.96 323.95 297.61C324.094 296.662 324.064 295.697 323.86 294.76Z" fill="black"/>
<path d="M333.541 281.56C331.471 290.15 330.781 293.82 325.601 297.5C317.821 303.04 307.731 298.62 307.191 289.58C306.711 281.45 310.191 268.77 319.281 266.82C321.288 266.38 323.375 266.46 325.343 267.054C327.311 267.647 329.094 268.735 330.523 270.212C331.952 271.689 332.979 273.507 333.508 275.493C334.036 277.48 334.047 279.568 333.541 281.56Z" fill="#FF8B7B"/>
<path d="M319.001 280.39C318.871 281.09 318.401 281.6 317.941 281.52C317.481 281.44 317.201 280.8 317.331 280.09C317.461 279.38 317.931 278.87 318.391 278.96C318.851 279.05 319.071 279.68 319.001 280.39Z" fill="#263238"/>
<path d="M311 279C310.87 279.71 310.4 280.21 309.93 280.13C309.46 280.05 309.2 279.41 309.32 278.7C309.44 277.99 309.93 277.49 310.39 277.57C310.85 277.65 311.08 278.26 311 279Z" fill="#263238"/>
<path d="M310.551 277.62L308.931 276.83C308.931 276.83 309.571 278.31 310.551 277.62Z" fill="#263238"/>
<path d="M313.85 281.83C312.935 283.329 311.818 284.696 310.53 285.89C310.845 286.212 311.227 286.462 311.648 286.621C312.07 286.78 312.521 286.844 312.97 286.81L313.85 281.83Z" fill="#FF5652"/>
<path d="M316.161 290.14C317.697 290.16 319.181 289.583 320.301 288.53C320.339 288.489 320.36 288.436 320.36 288.38C320.36 288.324 320.339 288.271 320.301 288.23C320.281 288.21 320.258 288.194 320.232 288.183C320.206 288.173 320.179 288.167 320.151 288.167C320.123 288.167 320.095 288.173 320.069 288.183C320.044 288.194 320.02 288.21 320.001 288.23C319.342 288.832 318.55 289.271 317.69 289.511C316.83 289.75 315.926 289.784 315.051 289.61C314.995 289.601 314.938 289.614 314.892 289.645C314.845 289.677 314.813 289.725 314.801 289.78C314.792 289.836 314.804 289.892 314.836 289.939C314.868 289.985 314.916 290.018 314.971 290.03C315.364 290.098 315.762 290.135 316.161 290.14Z" fill="#263238"/>
<path d="M337.05 284.11C332.61 291.49 320.74 276.06 318.77 268.6C315.85 270.05 309.87 274.3 309.77 271.54C309.67 268.78 319.86 264 325.31 264.84C330.76 265.68 340.1 279 337.05 284.11Z" fill="#263238"/>
<path d="M334.9 288.42C334.243 289.996 332.988 291.248 331.41 291.9C329.31 292.74 328.01 290.9 328.41 288.81C328.74 286.91 330.25 284.18 332.41 284.24C332.894 284.256 333.367 284.393 333.784 284.64C334.201 284.886 334.55 285.233 334.798 285.649C335.045 286.066 335.185 286.537 335.203 287.022C335.221 287.506 335.117 287.987 334.9 288.42Z" fill="#FF8B7B"/>
<path d="M321.7 277.31C321.763 277.325 321.828 277.325 321.89 277.31C321.99 277.259 322.066 277.17 322.101 277.064C322.137 276.957 322.129 276.841 322.08 276.74C321.79 276.136 321.358 275.611 320.822 275.209C320.286 274.807 319.661 274.54 319 274.43C318.946 274.423 318.89 274.427 318.837 274.442C318.784 274.457 318.735 274.483 318.692 274.517C318.649 274.552 318.613 274.595 318.587 274.643C318.561 274.692 318.545 274.745 318.54 274.8C318.529 274.911 318.561 275.022 318.63 275.11C318.699 275.198 318.8 275.255 318.91 275.27C319.432 275.364 319.923 275.58 320.344 275.902C320.765 276.224 321.103 276.641 321.33 277.12C321.369 277.183 321.423 277.233 321.489 277.267C321.554 277.3 321.627 277.315 321.7 277.31Z" fill="#263238"/>
<path d="M309.05 275.92C309.165 275.915 309.276 275.869 309.36 275.79C309.715 275.398 310.157 275.096 310.65 274.906C311.143 274.717 311.674 274.646 312.2 274.7C312.254 274.71 312.31 274.709 312.365 274.698C312.419 274.686 312.47 274.664 312.516 274.632C312.561 274.6 312.6 274.56 312.63 274.513C312.66 274.467 312.68 274.415 312.69 274.36C312.701 274.306 312.702 274.25 312.692 274.196C312.681 274.142 312.66 274.09 312.629 274.045C312.598 273.999 312.559 273.96 312.512 273.93C312.466 273.9 312.414 273.879 312.36 273.87C311.696 273.789 311.022 273.867 310.394 274.098C309.766 274.33 309.203 274.707 308.75 275.2C308.672 275.28 308.628 275.388 308.628 275.5C308.628 275.612 308.672 275.72 308.75 275.8C308.789 275.839 308.836 275.869 308.888 275.89C308.939 275.911 308.994 275.921 309.05 275.92Z" fill="#263238"/>
<path d="M318.54 279L316.92 278.21C316.92 278.21 317.56 279.72 318.54 279Z" fill="#263238"/>
<path d="M348.86 321.27C350.845 326.108 352.561 331.052 354 336.08C355.518 341.167 356.612 346.372 357.27 351.64L357.48 353.64L357.58 355.73V356.25V356.59V357.15C357.52 357.858 357.365 358.554 357.12 359.22C356.702 360.271 356.092 361.234 355.32 362.06C354.165 363.248 352.841 364.259 351.39 365.06C350.147 365.754 348.857 366.362 347.53 366.88C342.568 368.784 337.394 370.08 332.12 370.74L331.12 366.35C335.717 364.677 340.197 362.699 344.53 360.43C345.512 359.889 346.463 359.295 347.38 358.65C348.136 358.157 348.81 357.55 349.38 356.85C349.56 356.6 349.59 356.43 349.56 356.47C349.509 356.528 349.481 356.603 349.48 356.68C349.474 356.706 349.474 356.734 349.48 356.76V356.62V356.19L349.29 354.48L349.01 352.74C348.84 351.59 348.57 350.4 348.34 349.23C348.11 348.06 347.82 346.88 347.49 345.7C346.9 343.34 346.2 340.98 345.49 338.62C343.99 333.95 342.34 329.18 340.6 324.62L348.86 321.27Z" fill="#FF8B7B"/>
<path d="M345 311.75C348.62 312.85 353 325.33 353 325.33L338.95 335.33C338.95 335.33 333.83 324.92 335.35 320.24C336.85 315.4 340.82 310.5 345 311.75Z" fill="#263238"/>
</g>
</svg>
