<svg width="15" height="18" viewBox="0 0 15 18" fill="none" xmlns="http://www.w3.org/2000/svg">
<g clip-path="url(#clip0_185_364)">
<path d="M8.42578 17.55C10.4297 15.293 15 9.82266 15 6.75C15 3.02344 11.6406 0 7.5 0C3.35938 0 0 3.02344 0 6.75C0 9.82266 4.57031 15.293 6.57422 17.55C7.05469 18.0879 7.94531 18.0879 8.42578 17.55ZM7.5 9C6.12109 9 5 7.99102 5 6.75C5 5.50898 6.12109 4.5 7.5 4.5C8.87891 4.5 10 5.50898 10 6.75C10 7.99102 8.87891 9 7.5 9Z" fill="black"/>
</g>
<defs>
<clipPath id="clip0_185_364">
<rect width="15" height="18" fill="white"/>
</clipPath>
</defs>
</svg>
