<svg width="40" height="40" viewBox="0 0 40 40" fill="none" xmlns="http://www.w3.org/2000/svg">
<path d="M1.5 20C1.5 9.78273 9.78273 1.5 20 1.5C30.2173 1.5 38.5 9.78273 38.5 20C38.5 30.2173 30.2173 38.5 20 38.5C9.78273 38.5 1.5 30.2173 1.5 20Z" stroke="white" stroke-width="3"/>
<path d="M27.5607 21.0607C28.1464 20.4749 28.1464 19.5251 27.5607 18.9393L18.0147 9.3934C17.4289 8.80761 16.4792 8.80761 15.8934 9.3934C15.3076 9.97918 15.3076 10.9289 15.8934 11.5147L24.3787 20L15.8934 28.4853C15.3076 29.0711 15.3076 30.0208 15.8934 30.6066C16.4792 31.1924 17.4289 31.1924 18.0147 30.6066L27.5607 21.0607ZM25.5 21.5H26.5V18.5H25.5V21.5Z" fill="white"/>
</svg>
