<svg width="15" height="17" viewBox="0 0 15 17" fill="none" xmlns="http://www.w3.org/2000/svg">
<g clip-path="url(#clip0_185_373)">
<path d="M4.83105 0.816691C4.60547 0.199113 4.01074 -0.129598 3.44238 0.0463785L0.864258 0.843254C0.354492 1.00263 0 1.52724 0 2.12489C0 10.3393 5.87695 16.9999 13.125 16.9999C13.6523 16.9999 14.1152 16.5981 14.2559 16.0204L14.959 13.0985C15.1143 12.4544 14.8242 11.7804 14.2793 11.5247L11.4668 10.1966C10.9893 9.97079 10.4355 10.1268 10.1104 10.5817L8.92676 12.2186C6.86426 11.113 5.19434 9.2204 4.21875 6.8829L5.66309 5.54482C6.06445 5.17294 6.20215 4.54872 6.00293 4.00751L4.83105 0.820011V0.816691Z" fill="black"/>
</g>
<defs>
<clipPath id="clip0_185_373">
<rect width="15" height="17" fill="white"/>
</clipPath>
</defs>
</svg>
