<svg width="40" height="40" viewBox="0 0 40 40" fill="none" xmlns="http://www.w3.org/2000/svg">
<path d="M38.5 20C38.5 30.2173 30.2173 38.5 20 38.5C9.78273 38.5 1.5 30.2173 1.5 20C1.5 9.78273 9.78273 1.5 20 1.5C30.2173 1.5 38.5 9.78273 38.5 20Z" stroke="white" stroke-width="3"/>
<path d="M12.4393 18.9393C11.8536 19.5251 11.8536 20.4749 12.4393 21.0607L21.9853 30.6066C22.5711 31.1924 23.5208 31.1924 24.1066 30.6066C24.6924 30.0208 24.6924 29.0711 24.1066 28.4853L15.6213 20L24.1066 11.5147C24.6924 10.9289 24.6924 9.97918 24.1066 9.3934C23.5208 8.80761 22.5711 8.80761 21.9853 9.3934L12.4393 18.9393ZM14.5 18.5H13.5L13.5 21.5H14.5L14.5 18.5Z" fill="white"/>
</svg>
